<svg xmlns="http://www.w3.org/2000/svg" class="cytui-voronoi s-d4gedxE1Ge37" width="973" height="669" viewBox="0 0 973 669" style="background:#070707;font-family:ui-monospace,monospace;font-size:11px"><style>.cytui-voronoi.s-d4gedxE1Ge37 { position: absolute; inset: 0px; width: 100%; height: 100%; pointer-events: none; transition: opacity 0.25s; }
.cytui-voronoi.s-d4gedxE1Ge37 .cytui-veil:where(.s-d4gedxE1Ge37) { fill: rgb(7, 7, 7); opacity: 0.5; }
.cytui-subgraph.s-d4gedxE1Ge37 .vsub-wall:where(.s-d4gedxE1Ge37) { fill-opacity: 0.04; stroke-opacity: 0.3; stroke-width: 0.7; stroke-dasharray: 1, 2.5; stroke-linejoin: round; }
.cytui-subgraph.s-d4gedxE1Ge37 .vsub-gwall:where(.s-d4gedxE1Ge37) { fill-opacity: 0.07; stroke-opacity: 0.45; stroke-width: 1; stroke-dasharray: 3, 2; stroke-linejoin: round; }
.cytui-subgraph.s-d4gedxE1Ge37 .vsub-gwall.boundary:where(.s-d4gedxE1Ge37) { fill-opacity: 0.05; stroke-opacity: 0.55; stroke-width: 1.4; stroke-dasharray: none; }
.cytui-subgraph.s-d4gedxE1Ge37 text:where(.s-d4gedxE1Ge37) { user-select: none; }
.cytui-subgraph.s-d4gedxE1Ge37 .vsub-label:where(.s-d4gedxE1Ge37) { fill: rgb(201, 201, 201); }
.cytui-subgraph.s-d4gedxE1Ge37 .vsub-label.hot:where(.s-d4gedxE1Ge37) { pointer-events: all; cursor: pointer; }
.cytui-subgraph.s-d4gedxE1Ge37 .vsub-label.hot:where(.s-d4gedxE1Ge37):hover { fill: rgb(255, 255, 255); }
.cytui-subgraph.s-d4gedxE1Ge37 .vsub-tag:where(.s-d4gedxE1Ge37) { fill: rgb(102, 119, 136); font-size: 72%; }
.cytui-subgraph.s-d4gedxE1Ge37 .vsub-v:where(.s-d4gedxE1Ge37) { fill: rgb(207, 207, 207); }
.cytui-subgraph.s-d4gedxE1Ge37 .vsub-sup:where(.s-d4gedxE1Ge37) { fill: rgb(176, 164, 220); font-size: 68%; }
.cytui-subgraph.s-d4gedxE1Ge37 .vsub-gkey:where(.s-d4gedxE1Ge37) { opacity: 0.95; }
.cytui-subgraph.s-d4gedxE1Ge37 .vsub-title:where(.s-d4gedxE1Ge37) { opacity: 0.92; }
.cytui-subgraph.s-d4gedxE1Ge37 .vsub-dip:where(.s-d4gedxE1Ge37) { fill: rgb(138, 127, 192); font-size: 10px; pointer-events: all; cursor: pointer; }
.cytui-subgraph.s-d4gedxE1Ge37 .vsub-dip:where(.s-d4gedxE1Ge37):hover { fill: rgb(176, 164, 220); }
 *{}</style><rect class="cytui-veil s-d4gedxE1Ge37" height="100%" width="973"></rect><!----><path stroke-linecap="round" stroke-linejoin="round" class="s-d4gedxE1Ge37" d="M3.0 2.6L423.6 2.1L278.7 202.5L2.3 407.5L3.0 2.6Z" fill="#c5b759" fill-opacity="0.13" stroke="#c5b759" stroke-opacity="0.6" stroke-width="1.5"></path><path stroke-linecap="round" stroke-linejoin="round" class="s-d4gedxE1Ge37" d="M750.9 4.0L970.2 2.8L969.4 352.7L683.9 522.2L482.9 324.3L517.2 248.2L750.9 4.0Z" fill="#bc2476" fill-opacity="0.2" stroke="#bc2476" stroke-opacity="0.85" stroke-width="1.75" stroke-dasharray="1.5 3"></path><path stroke-linecap="round" stroke-linejoin="round" class="s-d4gedxE1Ge37" d="M582.5 666.3L49.9 667.8L473.7 324.7L680.1 527.4L582.5 666.3Z" fill="#bc2476" fill-opacity="0.2" stroke="#bc2476" stroke-opacity="0.85" stroke-width="1.75" stroke-dasharray="1.5 3"></path><path stroke-linecap="round" stroke-linejoin="round" class="s-d4gedxE1Ge37" d="M970.4 357.4L969.7 666.8L589.1 667.1L689.6 525.7L970.4 357.4Z" fill="#bc2476" fill-opacity="0.2" stroke="#bc2476" stroke-opacity="0.85" stroke-width="1.75" stroke-dasharray="1.5 3"></path><path stroke-linecap="round" stroke-linejoin="round" class="s-d4gedxE1Ge37" d="M429.0 3.5L747.6 1.6L500.6 257.1L288.7 198.8L429.0 3.5Z" fill="#bc2476" fill-opacity="0.2" stroke="#bc2476" stroke-opacity="0.85" stroke-width="1.75" stroke-dasharray="1.5 3"></path><path stroke-linecap="round" stroke-linejoin="round" class="s-d4gedxE1Ge37" d="M503.3 264.7L481.4 313.3L48.4 665.7L2.7 666.0L4.0 411.0L285.8 204.7L503.3 264.7Z" fill="#bc2476" fill-opacity="0.2" stroke="#bc2476" stroke-opacity="0.85" stroke-width="1.75" stroke-dasharray="1.5 3"></path><!----><!----><clipPath class="s-d4gedxE1Ge37" id="vsubclip-cytoid_1_1_2"><path class="s-d4gedxE1Ge37" d="M750.9 4.0L970.2 2.8L969.4 352.7L683.9 522.2L482.9 324.3L517.2 248.2Z"></path></clipPath><g class="cytui-subgraph s-d4gedxE1Ge37" clip-path="url(#vsubclip-cytoid_1_1_2)"><path class="vsub-gwall s-d4gedxE1Ge37 boundary" d="M832.7 196.5L832.7 430.9L817.3 440.1L620.8 172.4Z" stroke="#bc2476" fill="#bc2476"></path><path class="vsub-gwall s-d4gedxE1Ge37" d="M969.3 40.6L967.9 350.7L834.7 430.9L835.7 195.9Z" stroke="hsl(0, 52%, 60%)" fill="hsl(0, 52%, 60%)"></path><path class="vsub-gwall s-d4gedxE1Ge37" d="M751.9 6.3L967.9 4.0L967.7 39.0L832.8 192.0L621.2 169.7L603.9 159.2Z" stroke="hsl(275, 52%, 60%)" fill="hsl(275, 52%, 60%)"></path><path class="vsub-gwall s-d4gedxE1Ge37" d="M816.0 441.1L683.1 519.8L485.3 324.1L519.3 249.5L601.9 162.5L618.9 173.2Z" stroke="hsl(138, 52%, 60%)" fill="hsl(138, 52%, 60%)"></path><!----><path class="vsub-wall s-d4gedxE1Ge37" d="M831.5 295.3L831.0 335.3L783.7 352.7L773.1 321.9Z" stroke="#bc2476" fill="#bc2476"></path><text text-anchor="middle" class="vsub-label s-d4gedxE1Ge37 hot" x="804.8" y="332.5" font-size="17.9" role="button"><!----> <tspan class="vsub-v s-d4gedxE1Ge37">Tide</tspan><!----> <!----> <!----></text><path class="vsub-wall s-d4gedxE1Ge37" d="M771.9 377.2L711.6 295.5L770.2 323.0L781.1 353.0Z" stroke="#bc2476" fill="#bc2476"></path><text text-anchor="middle" class="vsub-label s-d4gedxE1Ge37 hot" x="758.7" y="340.5" font-size="9.6" role="button"><!----> <tspan class="vsub-v s-d4gedxE1Ge37">Halo</tspan><!----> <!----> <!----></text><path class="vsub-wall s-d4gedxE1Ge37" d="M831.2 197.6L831.1 293.1L770.9 319.9L711.6 293.1L622.3 173.3Z" stroke="#bc2476" fill="#bc2476"></path><text text-anchor="middle" class="vsub-label s-d4gedxE1Ge37 hot" x="753.4" y="265.9" font-size="30.0" role="button"><!----> <tspan class="vsub-v s-d4gedxE1Ge37">Drift</tspan><!----> <!----> <!----></text><path class="vsub-wall s-d4gedxE1Ge37" d="M831.9 337.5L831.8 429.4L817.0 438.4L774.1 379.4L783.6 355.5Z" stroke="#bc2476" fill="#bc2476"></path><text text-anchor="middle" class="vsub-label s-d4gedxE1Ge37 hot" x="807.7" y="393.7" font-size="16.1" role="button"><!----> <tspan class="vsub-v s-d4gedxE1Ge37">Neon</tspan><!----> <!----> <!----></text><path class="vsub-wall s-d4gedxE1Ge37" d="M967.8 237.6L966.9 349.2L928.2 373.0L887.6 274.1Z" stroke="#bc2476" fill="#bc2476"></path><text text-anchor="middle" class="vsub-label s-d4gedxE1Ge37" x="937.6" y="313.4" font-size="14.1"><!----> <tspan class="vsub-v s-d4gedxE1Ge37">1998</tspan><!----> <tspan class="vsub-sup s-d4gedxE1Ge37" dy="-0.45em">×2</tspan><!----> <!----></text><path class="vsub-wall s-d4gedxE1Ge37" d="M926.5 373.6L835.3 429.2L836.1 247.3L885.7 274.9Z" stroke="#bc2476" fill="#bc2476"></path><text text-anchor="middle" class="vsub-label s-d4gedxE1Ge37" x="870.9" y="339.6" font-size="23.9"><!----> <tspan class="vsub-v s-d4gedxE1Ge37">2007</tspan><!----> <!----> <!----></text><path class="vsub-wall s-d4gedxE1Ge37" d="M968.6 42.2L966.9 235.1L886.5 271.3L836.9 244.6L837.5 196.0Z" stroke="#bc2476" fill="#bc2476"></path><text text-anchor="middle" class="vsub-label s-d4gedxE1Ge37" x="899.3" y="208.3" font-size="30.0"><!----> <tspan class="vsub-v s-d4gedxE1Ge37">2019</tspan><!----> <!----> <!----></text><!----><!----><text class="vsub-gkey s-d4gedxE1Ge37" text-anchor="middle" x="742.4" y="219.8" font-size="13.0" fill="#bc2476">Track<!----></text><!----><text class="vsub-gkey s-d4gedxE1Ge37" text-anchor="middle" x="902.1" y="201.3" font-size="13.0" fill="hsl(0, 52%, 60%)">year:<!----></text><!----><text class="vsub-gkey s-d4gedxE1Ge37" text-anchor="middle" x="806.8" y="83.7" font-size="13.0" fill="hsl(275, 52%, 60%)">remaster:<tspan class="vsub-sup s-d4gedxE1Ge37" dy="-0.45em">×2</tspan><!----></text><!----><text class="vsub-gkey s-d4gedxE1Ge37" text-anchor="middle" x="605.0" y="310.0" font-size="13.0" fill="hsl(138, 52%, 60%)">live:<tspan class="vsub-sup s-d4gedxE1Ge37" dy="-0.45em">×2</tspan><!----></text><!----><text class="vsub-title s-d4gedxE1Ge37" text-anchor="middle" x="776.4" y="186.1" font-size="19.0" fill="#bc2476"><tspan class="vsub-tag s-d4gedxE1Ge37">Artist</tspan><!---->Moonlit<tspan class="vsub-sup s-d4gedxE1Ge37" dy="-0.45em">×4</tspan><!----></text><!----><text class="vsub-dip s-d4gedxE1Ge37" text-anchor="end" role="button" x="696.1" y="514.2">/*4</text><!----></g><clipPath class="s-d4gedxE1Ge37" id="vsubclip-cytoid_1_1_3"><path class="s-d4gedxE1Ge37" d="M582.5 666.3L49.9 667.8L473.7 324.7L680.1 527.4Z"></path></clipPath><g class="cytui-subgraph s-d4gedxE1Ge37" clip-path="url(#vsubclip-cytoid_1_1_3)"><path class="vsub-gwall s-d4gedxE1Ge37 boundary" d="M471.9 664.5L431.3 664.3L295.3 479.5L471.8 499.7Z" stroke="#bc2476" fill="#bc2476"></path><path class="vsub-gwall s-d4gedxE1Ge37" d="M581.9 663.9L474.6 664.6L475.2 499.1L554.7 406.8L677.7 527.8Z" stroke="hsl(0, 52%, 60%)" fill="hsl(0, 52%, 60%)"></path><path class="vsub-gwall s-d4gedxE1Ge37" d="M429.5 665.5L52.2 666.8L287.7 477.3L292.6 480.4Z" stroke="hsl(138, 52%, 60%)" fill="hsl(138, 52%, 60%)"></path><path class="vsub-gwall s-d4gedxE1Ge37" d="M290.6 474.1L472.5 326.9L552.3 404.9L471.5 495.9L295.7 477.2Z" stroke="hsl(275, 52%, 60%)" fill="hsl(275, 52%, 60%)"></path><!----><path class="vsub-wall s-d4gedxE1Ge37" d="M421.6 610.2L411.5 585.6L470.5 558.8L470.1 592.5Z" stroke="#bc2476" fill="#bc2476"></path><text text-anchor="middle" class="vsub-label s-d4gedxE1Ge37 hot" x="443.4" y="593.2" font-size="18.5" role="button"><!----> <tspan class="vsub-v s-d4gedxE1Ge37">Root</tspan><!----> <!----> <!----></text><path class="vsub-wall s-d4gedxE1Ge37" d="M412.6 638.0L350.5 553.9L408.5 586.8L418.9 610.5Z" stroke="#bc2476" fill="#bc2476"></path><text text-anchor="middle" class="vsub-label s-d4gedxE1Ge37 hot" x="397.6" y="599.8" font-size="7.0" role="button"><!----> <tspan class="vsub-v s-d4gedxE1Ge37">Frond</tspan><!----> <!----> <!----></text><path class="vsub-wall s-d4gedxE1Ge37" d="M350.9 552.1L296.9 480.4L470.1 500.5L470.1 557.0L409.4 583.8Z" stroke="#bc2476" fill="#bc2476"></path><text text-anchor="middle" class="vsub-label s-d4gedxE1Ge37 hot" x="399.5" y="545.3" font-size="30.0" role="button"><!----> <tspan class="vsub-v s-d4gedxE1Ge37">Moss</tspan><!----> <!----> <!----></text><path class="vsub-wall s-d4gedxE1Ge37" d="M470.6 663.3L431.9 662.6L414.9 639.3L421.6 612.8L470.8 594.3Z" stroke="#bc2476" fill="#bc2476"></path><text text-anchor="middle" class="vsub-label s-d4gedxE1Ge37 hot" x="442.0" y="639.3" font-size="13.8" role="button"><!----> <tspan class="vsub-v s-d4gedxE1Ge37">Bloom</tspan><!----> <!----> <!----></text><path class="vsub-wall s-d4gedxE1Ge37" d="M582.4 662.2L581.0 662.2L540.0 562.0L656.3 509.2L676.3 529.0Z" stroke="#bc2476" fill="#bc2476"></path><text text-anchor="middle" class="vsub-label s-d4gedxE1Ge37" x="607.2" y="591.7" font-size="19.3"><!----> <tspan class="vsub-v s-d4gedxE1Ge37">1998</tspan><!----> <tspan class="vsub-sup s-d4gedxE1Ge37" dy="-0.45em">×2</tspan><!----> <!----></text><path class="vsub-wall s-d4gedxE1Ge37" d="M579.1 662.7L475.6 663.1L476.0 528.8L537.5 563.0Z" stroke="#bc2476" fill="#bc2476"></path><text text-anchor="middle" class="vsub-label s-d4gedxE1Ge37" x="517.1" y="613.5" font-size="25.9"><!----> <tspan class="vsub-v s-d4gedxE1Ge37">2019</tspan><!----> <!----> <!----></text><path class="vsub-wall s-d4gedxE1Ge37" d="M476.8 526.5L477.0 499.1L554.4 408.6L655.4 507.6L538.3 559.6Z" stroke="#bc2476" fill="#bc2476"></path><text text-anchor="middle" class="vsub-label s-d4gedxE1Ge37" x="540.4" y="510.8" font-size="30.0"><!----> <tspan class="vsub-v s-d4gedxE1Ge37">2007</tspan><!----> <!----> <!----></text><!----><!----><text class="vsub-gkey s-d4gedxE1Ge37" text-anchor="middle" x="394.4" y="513.7" font-size="13.0" fill="#bc2476">Track<!----></text><!----><text class="vsub-gkey s-d4gedxE1Ge37" text-anchor="middle" x="567.3" y="514.5" font-size="13.0" fill="hsl(0, 52%, 60%)">year:<!----></text><!----><text class="vsub-gkey s-d4gedxE1Ge37" text-anchor="middle" x="269.9" y="557.6" font-size="13.0" fill="hsl(138, 52%, 60%)">live:<tspan class="vsub-sup s-d4gedxE1Ge37" dy="-0.45em">×2</tspan><!----></text><!----><text class="vsub-gkey s-d4gedxE1Ge37" text-anchor="middle" x="465.4" y="399.0" font-size="13.0" fill="hsl(275, 52%, 60%)">remaster:<tspan class="vsub-sup s-d4gedxE1Ge37" dy="-0.45em">×2</tspan><!----></text><!----><text class="vsub-title s-d4gedxE1Ge37" text-anchor="middle" x="461.1" y="448.0" font-size="19.0" fill="#bc2476"><tspan class="vsub-tag s-d4gedxE1Ge37">Artist</tspan><!---->Fernway<tspan class="vsub-sup s-d4gedxE1Ge37" dy="-0.45em">×4</tspan><!----></text><!----><text class="vsub-dip s-d4gedxE1Ge37" text-anchor="end" role="button" x="581.9" y="659.8">/*4</text><!----></g><clipPath class="s-d4gedxE1Ge37" id="vsubclip-cytoid_1_1_4"><path class="s-d4gedxE1Ge37" d="M970.4 357.4L969.7 666.8L589.1 667.1L689.6 525.7Z"></path></clipPath><g class="cytui-subgraph s-d4gedxE1Ge37" clip-path="url(#vsubclip-cytoid_1_1_4)"><path class="vsub-gwall s-d4gedxE1Ge37 boundary" d="M875.8 664.5L851.2 664.4L732.5 502.5L876.1 415.9Z" stroke="#bc2476" fill="#bc2476"></path><path class="vsub-gwall s-d4gedxE1Ge37" d="M969.7 359.8L968.9 664.4L877.6 664.5L877.7 415.9Z" stroke="hsl(0, 52%, 60%)" fill="hsl(0, 52%, 60%)"></path><path class="vsub-gwall s-d4gedxE1Ge37" d="M849.5 665.6L591.2 665.8L690.5 528.0L729.9 503.7Z" stroke="hsl(138, 52%, 60%)" fill="hsl(138, 52%, 60%)"></path><!----><path class="vsub-wall s-d4gedxE1Ge37" d="M875.3 662.8L861.4 662.7L825.3 575.0L875.5 552.0Z" stroke="#bc2476" fill="#bc2476"></path><text text-anchor="middle" class="vsub-label s-d4gedxE1Ge37 hot" x="859.4" y="616.6" font-size="10.1" role="button"><!----> <tspan class="vsub-v s-d4gedxE1Ge37">Echo</tspan><!----> <!----> <!----></text><path class="vsub-wall s-d4gedxE1Ge37" d="M860.4 663.0L850.4 662.8L759.8 539.5L824.1 575.5Z" stroke="#bc2476" fill="#bc2476"></path><text text-anchor="middle" class="vsub-label s-d4gedxE1Ge37 hot" x="823.7" y="612.6" font-size="7.0" role="button"><!----> <tspan class="vsub-v s-d4gedxE1Ge37">Static</tspan><!----> <!----> <!----></text><path class="vsub-wall s-d4gedxE1Ge37" d="M760.2 537.5L734.2 502.8L875.1 417.5L874.4 549.4L823.8 571.9Z" stroke="#bc2476" fill="#bc2476"></path><text text-anchor="middle" class="vsub-label s-d4gedxE1Ge37 hot" x="813.6" y="526.3" font-size="30.0" role="button"><!----> <tspan class="vsub-v s-d4gedxE1Ge37">Choir</tspan><!----> <!----> <!----></text><path class="vsub-wall s-d4gedxE1Ge37" d="M969.3 361.6L968.3 662.7L878.1 662.8L878.4 417.5Z" stroke="#bc2476" fill="#bc2476"></path><text text-anchor="middle" class="vsub-label s-d4gedxE1Ge37" x="923.5" y="536.6" font-size="30.0"><!----> <tspan class="vsub-v s-d4gedxE1Ge37">2007</tspan><!----> <!----> <!----></text><!----><!----><text class="vsub-gkey s-d4gedxE1Ge37" text-anchor="middle" x="808.9" y="519.9" font-size="13.0" fill="#bc2476">Track<!----></text><!----><text class="vsub-gkey s-d4gedxE1Ge37" text-anchor="middle" x="923.6" y="437.5" font-size="13.0" fill="hsl(0, 52%, 60%)">year:<!----></text><!----><text class="vsub-gkey s-d4gedxE1Ge37" text-anchor="middle" x="719.5" y="573.1" font-size="13.0" fill="hsl(138, 52%, 60%)">live:<tspan class="vsub-sup s-d4gedxE1Ge37" dy="-0.45em">×1</tspan><!----></text><!----><text class="vsub-title s-d4gedxE1Ge37" text-anchor="middle" x="882.4" y="468.7" font-size="17.2" fill="#bc2476"><tspan class="vsub-tag s-d4gedxE1Ge37">Artist</tspan><!---->Voxhall<tspan class="vsub-sup s-d4gedxE1Ge37" dy="-0.45em">×3</tspan><!----></text><!----><text class="vsub-dip s-d4gedxE1Ge37" text-anchor="end" role="button" x="961.7" y="659.1">/*3</text><!----></g><clipPath class="s-d4gedxE1Ge37" id="vsubclip-cytoid_1_1_7"><path class="s-d4gedxE1Ge37" d="M429.0 3.5L747.6 1.6L500.6 257.1L288.7 198.8Z"></path></clipPath><g class="cytui-subgraph s-d4gedxE1Ge37" clip-path="url(#vsubclip-cytoid_1_1_7)"><path class="vsub-gwall s-d4gedxE1Ge37 boundary" d="M545.7 79.1L545.7 207.0L529.0 224.7L410.4 63.3Z" stroke="#bc2476" fill="#bc2476"></path><path class="vsub-gwall s-d4gedxE1Ge37" d="M612.1 4.9L745.4 2.8L548.0 206.9L549.4 76.8Z" stroke="hsl(0, 52%, 60%)" fill="hsl(0, 52%, 60%)"></path><path class="vsub-gwall s-d4gedxE1Ge37" d="M431.0 5.0L609.6 3.1L544.7 75.7L410.8 61.0L396.1 52.2Z" stroke="hsl(275, 52%, 60%)" fill="hsl(275, 52%, 60%)"></path><path class="vsub-gwall s-d4gedxE1Ge37" d="M527.5 225.7L499.0 255.1L291.1 198.1L394.4 55.0L408.9 64.2Z" stroke="hsl(138, 52%, 60%)" fill="hsl(138, 52%, 60%)"></path><!----><path class="vsub-wall s-d4gedxE1Ge37" d="M545.2 132.1L544.9 205.4L530.1 221.8L505.5 150.4Z" stroke="#bc2476" fill="#bc2476"></path><text text-anchor="middle" class="vsub-label s-d4gedxE1Ge37 hot" x="531.4" y="179.9" font-size="7.0" role="button"><!----> <tspan class="vsub-v s-d4gedxE1Ge37">Delta</tspan><!----> <!----> <!----></text><path class="vsub-wall s-d4gedxE1Ge37" d="M529.1 222.0L528.1 223.1L459.5 129.9L504.3 150.9Z" stroke="#bc2476" fill="#bc2476"></path><text text-anchor="middle" class="vsub-label s-d4gedxE1Ge37 hot" x="505.3" y="183.9" font-size="7.0" role="button"><!----> <tspan class="vsub-v s-d4gedxE1Ge37">Silt</tspan><!----> <!----> <!----></text><path class="vsub-wall s-d4gedxE1Ge37" d="M544.1 80.0L544.0 129.7L503.8 147.3L459.9 127.7L412.0 64.2Z" stroke="#bc2476" fill="#bc2476"></path><text text-anchor="middle" class="vsub-label s-d4gedxE1Ge37 hot" x="492.7" y="120.3" font-size="30.0" role="button"><!----> <tspan class="vsub-v s-d4gedxE1Ge37">Eddy</tspan><!----> <!----> <!----></text><path class="vsub-wall s-d4gedxE1Ge37" d="M613.1 6.4L743.7 3.4L622.4 128.6L585.6 37.6Z" stroke="#bc2476" fill="#bc2476"></path><text text-anchor="middle" class="vsub-label s-d4gedxE1Ge37" x="641.2" y="53.1" font-size="26.1"><!----> <tspan class="vsub-v s-d4gedxE1Ge37">1998</tspan><!----> <tspan class="vsub-sup s-d4gedxE1Ge37" dy="-0.45em">×2</tspan><!----> <!----></text><path class="vsub-wall s-d4gedxE1Ge37" d="M620.3 129.8L548.5 205.2L550.5 78.2L583.6 39.2Z" stroke="#bc2476" fill="#bc2476"></path><text text-anchor="middle" class="vsub-label s-d4gedxE1Ge37" x="575.7" y="120.2" font-size="20.4"><!----> <tspan class="vsub-v s-d4gedxE1Ge37">2019</tspan><!----> <!----> <!----></text><!----><!----><text class="vsub-gkey s-d4gedxE1Ge37" text-anchor="middle" x="487.5" y="93.7" font-size="13.0" fill="#bc2476">Track<!----></text><!----><text class="vsub-gkey s-d4gedxE1Ge37" text-anchor="middle" x="664.7" y="23.7" font-size="13.0" fill="hsl(0, 52%, 60%)">year:<!----></text><!----><text class="vsub-gkey s-d4gedxE1Ge37" text-anchor="middle" x="516.3" y="13.4" font-size="13.0" fill="hsl(275, 52%, 60%)">remaster:<tspan class="vsub-sup s-d4gedxE1Ge37" dy="-0.45em">×2</tspan><!----></text><!----><text class="vsub-gkey s-d4gedxE1Ge37" text-anchor="middle" x="398.8" y="139.6" font-size="13.0" fill="hsl(138, 52%, 60%)">live:<tspan class="vsub-sup s-d4gedxE1Ge37" dy="-0.45em">×2</tspan><!----></text><!----><text class="vsub-title s-d4gedxE1Ge37" text-anchor="middle" x="578.2" y="21.0" font-size="19.0" fill="#bc2476"><tspan class="vsub-tag s-d4gedxE1Ge37">Artist</tspan><!---->Riverine<tspan class="vsub-sup s-d4gedxE1Ge37" dy="-0.45em">×3</tspan><!----></text><!----><text class="vsub-dip s-d4gedxE1Ge37" text-anchor="end" role="button" x="504.2" y="249.1">/*3</text><!----></g><clipPath class="s-d4gedxE1Ge37" id="vsubclip-cytoid_1_1_9"><path class="s-d4gedxE1Ge37" d="M503.3 264.7L481.4 313.3L48.4 665.7L2.7 666.0L4.0 411.0L285.8 204.7Z"></path></clipPath><g class="cytui-subgraph s-d4gedxE1Ge37" clip-path="url(#vsubclip-cytoid_1_1_9)"><path class="vsub-gwall s-d4gedxE1Ge37 boundary" d="M266.2 485.3L223.1 520.9L95.5 346.7L266.7 220.4Z" stroke="#bc2476" fill="#bc2476"></path><path class="vsub-gwall s-d4gedxE1Ge37" d="M500.8 265.3L479.0 313.0L268.6 485.2L269.4 219.7L287.3 206.6Z" stroke="hsl(0, 52%, 60%)" fill="hsl(0, 52%, 60%)"></path><path class="vsub-gwall s-d4gedxE1Ge37" d="M220.8 523.4L48.8 663.3L3.8 663.8L5.3 413.1L92.9 348.2Z" stroke="hsl(138, 52%, 60%)" fill="hsl(138, 52%, 60%)"></path><!----><path class="vsub-wall s-d4gedxE1Ge37" d="M265.7 483.5L241.4 503.9L169.1 294.6L266.4 222.2Z" stroke="#bc2476" fill="#bc2476"></path><text text-anchor="middle" class="vsub-label s-d4gedxE1Ge37 hot" x="235.7" y="382.3" font-size="17.8" role="button"><!----> <tspan class="vsub-v s-d4gedxE1Ge37">Ingot</tspan><!----> <!----> <!----></text><path class="vsub-wall s-d4gedxE1Ge37" d="M240.5 504.2L222.5 519.2L96.9 347.8L168.2 295.0Z" stroke="#bc2476" fill="#bc2476"></path><text text-anchor="middle" class="vsub-label s-d4gedxE1Ge37 hot" x="182.0" y="422.2" font-size="16.2" role="button"><!----> <tspan class="vsub-v s-d4gedxE1Ge37">Gleam</tspan><!----> <!----> <!----></text><path class="vsub-wall s-d4gedxE1Ge37" d="M499.1 265.7L477.2 312.8L269.4 483.6L270.7 220.8L288.5 208.0Z" stroke="#bc2476" fill="#bc2476"></path><text text-anchor="middle" class="vsub-label s-d4gedxE1Ge37" x="361.0" y="308.7" font-size="30.0"><!----> <tspan class="vsub-v s-d4gedxE1Ge37">2007</tspan><!----> <!----> <!----></text><!----><!----><text class="vsub-gkey s-d4gedxE1Ge37" text-anchor="middle" x="185.1" y="345.2" font-size="13.0" fill="#bc2476">Track<!----></text><!----><text class="vsub-gkey s-d4gedxE1Ge37" text-anchor="middle" x="383.1" y="278.0" font-size="13.0" fill="hsl(0, 52%, 60%)">year:<!----></text><!----><text class="vsub-gkey s-d4gedxE1Ge37" text-anchor="middle" x="95.0" y="479.0" font-size="13.0" fill="hsl(138, 52%, 60%)">live:<tspan class="vsub-sup s-d4gedxE1Ge37" dy="-0.45em">×1</tspan><!----></text><!----><text class="vsub-title s-d4gedxE1Ge37" text-anchor="middle" x="246.9" y="368.2" font-size="19.0" fill="#bc2476"><tspan class="vsub-tag s-d4gedxE1Ge37">Artist</tspan><!---->Palegold<tspan class="vsub-sup s-d4gedxE1Ge37" dy="-0.45em">×2</tspan><!----></text><!----><text class="vsub-dip s-d4gedxE1Ge37" text-anchor="end" role="button" x="54.8" y="658.0">/*2</text><!----></g><!----><!----></svg>