<svg xmlns="http://www.w3.org/2000/svg" class="cytui-voronoi s-d4gedxE1Ge37" width="812" height="1044" viewBox="0 0 812 1044" style="background:#070707;font-family:ui-monospace,monospace;font-size:11px"><style>.cytui-voronoi.s-d4gedxE1Ge37 { position: absolute; inset: 0px; width: 100%; height: 100%; pointer-events: none; transition: opacity 0.25s; }
.cytui-voronoi.s-d4gedxE1Ge37 .cytui-veil:where(.s-d4gedxE1Ge37) { fill: rgb(7, 7, 7); opacity: 0.5; }
.cytui-subgraph.s-d4gedxE1Ge37 .vsub-wall:where(.s-d4gedxE1Ge37) { fill-opacity: 0.04; stroke-opacity: 0.3; stroke-width: 0.7; stroke-dasharray: 1, 2.5; stroke-linejoin: round; }
.cytui-subgraph.s-d4gedxE1Ge37 .vsub-gwall:where(.s-d4gedxE1Ge37) { fill-opacity: 0.07; stroke-opacity: 0.45; stroke-width: 1; stroke-dasharray: 3, 2; stroke-linejoin: round; }
.cytui-subgraph.s-d4gedxE1Ge37 .vsub-gwall.boundary:where(.s-d4gedxE1Ge37) { fill-opacity: 0.05; stroke-opacity: 0.55; stroke-width: 1.4; stroke-dasharray: none; }
.cytui-subgraph.s-d4gedxE1Ge37 .vsub-nwall:where(.s-d4gedxE1Ge37) { fill-opacity: 0.09; stroke-opacity: 0.7; stroke-width: 1.4; stroke-linejoin: round; }
.cytui-subgraph.s-d4gedxE1Ge37 .vsub-spoke:where(.s-d4gedxE1Ge37) { fill: none; stroke-width: 1; stroke-opacity: 0.3; stroke-dasharray: 2, 3; stroke-linecap: round; }
.cytui-subgraph.s-d4gedxE1Ge37 text:where(.s-d4gedxE1Ge37) { user-select: none; }
.cytui-subgraph.s-d4gedxE1Ge37 .vsub-label:where(.s-d4gedxE1Ge37) { fill: rgb(201, 201, 201); }
.cytui-subgraph.s-d4gedxE1Ge37 .vsub-label.hot:where(.s-d4gedxE1Ge37) { pointer-events: all; cursor: pointer; }
.cytui-subgraph.s-d4gedxE1Ge37 .vsub-label.hot:where(.s-d4gedxE1Ge37):hover { fill: rgb(255, 255, 255); }
.cytui-subgraph.s-d4gedxE1Ge37 .vsub-tag:where(.s-d4gedxE1Ge37) { fill: rgb(102, 119, 136); font-size: 72%; }
.cytui-subgraph.s-d4gedxE1Ge37 .vsub-v:where(.s-d4gedxE1Ge37) { fill: rgb(207, 207, 207); }
.cytui-subgraph.s-d4gedxE1Ge37 .vsub-colon:where(.s-d4gedxE1Ge37) { fill: rgb(228, 163, 245); }
.cytui-subgraph.s-d4gedxE1Ge37 .vsub-sup:where(.s-d4gedxE1Ge37) { fill: rgb(156, 140, 217); font-size: 68%; }
.cytui-subgraph.s-d4gedxE1Ge37 .vsub-c:where(.s-d4gedxE1Ge37) { fill: rgb(83, 255, 15); font-size: 78%; opacity: 0.85; }
.cytui-subgraph.s-d4gedxE1Ge37 .vsub-gkey:where(.s-d4gedxE1Ge37) { opacity: 0.95; }
.cytui-subgraph.s-d4gedxE1Ge37 .vsub-ntitle:where(.s-d4gedxE1Ge37) { opacity: 0.95; }
.cytui-subgraph.s-d4gedxE1Ge37 .vsub-ntag:where(.s-d4gedxE1Ge37) { font-size: 78%; }
.cytui-subgraph.s-d4gedxE1Ge37 .vsub-title:where(.s-d4gedxE1Ge37) { opacity: 0.92; }
.cytui-subgraph.s-d4gedxE1Ge37 .vsub-dip:where(.s-d4gedxE1Ge37) { fill: rgb(138, 127, 192); font-size: 10px; pointer-events: all; cursor: pointer; }
.cytui-subgraph.s-d4gedxE1Ge37 .vsub-dip:where(.s-d4gedxE1Ge37):hover { fill: rgb(176, 164, 220); }
 *{}</style><rect class="cytui-veil s-d4gedxE1Ge37" height="100%" width="812"></rect><!----><path stroke-linecap="round" stroke-linejoin="round" class="s-d4gedxE1Ge37" d="M810.2 472.4L809.2 1041.2L240.4 1042.2L810.2 472.4Z" fill="#c5b759" fill-opacity="0.13" stroke="#c5b759" stroke-opacity="0.6" stroke-width="1.5"></path><path stroke-linecap="round" stroke-linejoin="round" class="s-d4gedxE1Ge37" d="M809.5 297.1L808.8 471.1L239.1 1040.8L65.1 1041.5L809.5 297.1Z" fill="#bc2476" fill-opacity="0.2" stroke="#bc2476" stroke-opacity="0.85" stroke-width="1.75" stroke-dasharray="1.5 3"></path><path stroke-linecap="round" stroke-linejoin="round" class="s-d4gedxE1Ge37" d="M809.4 140.4L808.9 296.6L64.5 1040.9L2.8 1041.1L3.2 947.0L809.4 140.4Z" fill="#bc2476" fill-opacity="0.2" stroke="#bc2476" stroke-opacity="0.85" stroke-width="1.75" stroke-dasharray="1.5 3"></path><path stroke-linecap="round" stroke-linejoin="round" class="s-d4gedxE1Ge37" d="M783.3 3.1L809.4 3.0L808.8 139.7L2.6 946.3L3.0 783.2L783.3 3.1Z" fill="#bc2476" fill-opacity="0.2" stroke="#bc2476" stroke-opacity="0.85" stroke-width="1.75" stroke-dasharray="1.5 3"></path><path stroke-linecap="round" stroke-linejoin="round" class="s-d4gedxE1Ge37" d="M607.0 3.2L782.7 2.5L2.5 782.7L3.2 607.0L607.0 3.2Z" fill="#bc2476" fill-opacity="0.2" stroke="#bc2476" stroke-opacity="0.85" stroke-width="1.75" stroke-dasharray="1.5 3"></path><path stroke-linecap="round" stroke-linejoin="round" class="s-d4gedxE1Ge37" d="M2.8 2.8L605.8 1.8L1.8 605.8L2.8 2.8Z" fill="#bc2476" fill-opacity="0.2" stroke="#bc2476" stroke-opacity="0.85" stroke-width="1.75" stroke-dasharray="1.5 3"></path><!----><!----><clipPath class="s-d4gedxE1Ge37" id="vsubclip-cytoid_1_1_2"><path class="s-d4gedxE1Ge37" d="M809.5 297.1L808.8 471.1L239.1 1040.8L65.1 1041.5Z"></path></clipPath><g class="cytui-subgraph s-d4gedxE1Ge37" clip-path="url(#vsubclip-cytoid_1_1_2)"><path class="vsub-spoke s-d4gedxE1Ge37" d="M481.7,733.1L662.8,564.8" stroke="#bc2476"></path><path class="vsub-spoke s-d4gedxE1Ge37" d="M481.7,733.1L321.3,871.6" stroke="hsl(138, 52%, 60%)"></path><path class="vsub-spoke s-d4gedxE1Ge37" d="M481.7,733.1L430.2,702.6" stroke="hsl(190, 52%, 60%)"></path><path class="vsub-spoke s-d4gedxE1Ge37" d="M481.7,733.1L606.8,531.1" stroke="hsl(275, 52%, 60%)"></path><!----><path class="vsub-gwall s-d4gedxE1Ge37 boundary" d="M807.9 346.8L806.7 472.5L518.1 761.3L518.5 678.4Z" stroke="#bc2476" fill="#bc2476"></path><path class="vsub-gwall s-d4gedxE1Ge37" d="M477.3 801.4L240.2 1038.5L67.2 1040.1L381.3 726.7L440.5 751.3Z" stroke="hsl(138, 52%, 60%)" fill="hsl(138, 52%, 60%)"></path><path class="vsub-gwall s-d4gedxE1Ge37" d="M384.5 723.4L443.1 665.1L451.6 674.9L441.7 747.1Z" stroke="hsl(190, 52%, 60%)" fill="hsl(190, 52%, 60%)"></path><path class="vsub-gwall s-d4gedxE1Ge37" d="M807.9 299.0L807.5 346.4L517.9 677.8L455.0 671.3L445.9 661.2Z" stroke="hsl(275, 52%, 60%)" fill="hsl(275, 52%, 60%)"></path><!----><path class="vsub-nwall s-d4gedxE1Ge37" d="M514.7 761.7L479.6 797.9L444.6 748.6L454.2 675.2L515.2 682.0Z" stroke="#bc2476" fill="#bc2476"></path><!----><path class="vsub-wall s-d4gedxE1Ge37" d="M706.8 571.6L675.4 602.2L647.7 581.4Z" stroke="#bc2476" fill="#bc2476"></path><text text-anchor="middle" class="vsub-label s-d4gedxE1Ge37 hot" x="676.6" y="589.3" font-size="12.2" role="button"><tspan class="vsub-c s-d4gedxE1Ge37">%</tspan><!----> <!----> <tspan class="vsub-v s-d4gedxE1Ge37">Tide</tspan><!----> <!----> <!----></text><path class="vsub-wall s-d4gedxE1Ge37" d="M654.0 624.0L519.0 759.8L520.1 677.6L613.8 570.3L636.9 582.8Z" stroke="#bc2476" fill="#bc2476"></path><text text-anchor="middle" class="vsub-label s-d4gedxE1Ge37 hot" x="588.8" y="652.7" font-size="28.0" role="button"><tspan class="vsub-c s-d4gedxE1Ge37">%</tspan><!----> <!----> <tspan class="vsub-v s-d4gedxE1Ge37">Halo</tspan><!----> <!----> <!----></text><path class="vsub-wall s-d4gedxE1Ge37" d="M807.0 348.3L805.0 473.3L708.3 569.0L647.1 579.8L639.3 580.2L615.9 567.8Z" stroke="#bc2476" fill="#bc2476"></path><text text-anchor="middle" class="vsub-label s-d4gedxE1Ge37 hot" x="703.8" y="529.1" font-size="26.8" role="button"><tspan class="vsub-c s-d4gedxE1Ge37">%</tspan><!----> <!----> <tspan class="vsub-v s-d4gedxE1Ge37">Drift</tspan><!----> <!----> <!----></text><path class="vsub-wall s-d4gedxE1Ge37" d="M673.6 603.5L655.6 621.7L639.3 582.7L646.7 582.8Z" stroke="#bc2476" fill="#bc2476"></path><text text-anchor="middle" class="vsub-label s-d4gedxE1Ge37 hot" x="653.8" y="600.1" font-size="7.0" role="button"><tspan class="vsub-c s-d4gedxE1Ge37">%</tspan><!----> <!----> <tspan class="vsub-v s-d4gedxE1Ge37">Neon</tspan><!----> <!----> <!----></text><path class="vsub-wall s-d4gedxE1Ge37" d="M467.0 811.2L332.3 945.8L307.1 883.8Z" stroke="#bc2476" fill="#bc2476"></path><text text-anchor="middle" class="vsub-label s-d4gedxE1Ge37" x="368.8" y="886.6" font-size="18.2"><!----> <!----> <tspan class="vsub-v s-d4gedxE1Ge37">1998</tspan><!----> <tspan class="vsub-sup s-d4gedxE1Ge37" dy="-0.45em">×2</tspan><!----> <!----></text><path class="vsub-wall s-d4gedxE1Ge37" d="M329.6 947.5L240.2 1036.7L68.8 1039.3L252.2 857.0L304.1 885.2Z" stroke="#bc2476" fill="#bc2476"></path><text text-anchor="middle" class="vsub-label s-d4gedxE1Ge37" x="239.0" y="963.6" font-size="30.0"><!----> <!----> <tspan class="vsub-v s-d4gedxE1Ge37">2007</tspan><!----> <!----> <!----></text><path class="vsub-wall s-d4gedxE1Ge37" d="M475.5 801.5L466.7 810.1L306.6 882.6L254.2 854.6L381.4 728.5L439.3 752.6Z" stroke="#bc2476" fill="#bc2476"></path><text text-anchor="middle" class="vsub-label s-d4gedxE1Ge37" x="387.3" y="815.5" font-size="30.0"><!----> <!----> <tspan class="vsub-v s-d4gedxE1Ge37">2019</tspan><!----> <!----> <!----></text><!----><!----><text class="vsub-gkey s-d4gedxE1Ge37" text-anchor="middle" x="745.9" y="484.0" font-size="13.0" fill="#bc2476">Track<!----><!----></text><!----><text class="vsub-gkey s-d4gedxE1Ge37" text-anchor="middle" x="341.1" y="856.6" font-size="13.0" fill="hsl(138, 52%, 60%)">year<tspan class="vsub-colon s-d4gedxE1Ge37">:</tspan><!----><!----></text><!----><text class="vsub-gkey s-d4gedxE1Ge37" text-anchor="middle" x="429.3" y="700.4" font-size="7.0" fill="hsl(190, 52%, 60%)">remaster<!----><tspan class="vsub-sup s-d4gedxE1Ge37" dy="-0.45em">×2</tspan><!----></text><!----><text class="vsub-gkey s-d4gedxE1Ge37" text-anchor="middle" x="686.5" y="455.0" font-size="12.9" fill="hsl(275, 52%, 60%)">live<!----><tspan class="vsub-sup s-d4gedxE1Ge37" dy="-0.45em">×2</tspan><!----></text><!----><text class="vsub-ntitle s-d4gedxE1Ge37" text-anchor="middle" x="480.2" y="744.3" font-size="8.0"><tspan class="vsub-ntag s-d4gedxE1Ge37" fill="#bc2476">Artist</tspan><tspan class="s-d4gedxE1Ge37"></tspan><!----><!----><tspan class="vsub-nk s-d4gedxE1Ge37" fill="hsl(53, 52%, 68%)">name</tspan><tspan class="vsub-colon s-d4gedxE1Ge37">:</tspan><!----><tspan class="vsub-v s-d4gedxE1Ge37">Moonlit</tspan><!----><tspan class="vsub-sup s-d4gedxE1Ge37" dy="-0.45em">×4</tspan><!----></text><!----><!----><text class="vsub-dip s-d4gedxE1Ge37" text-anchor="end" role="button" x="242.4" y="1033.5">/*4</text><!----></g><clipPath class="s-d4gedxE1Ge37" id="vsubclip-cytoid_1_1_3"><path class="s-d4gedxE1Ge37" d="M809.4 140.4L808.9 296.6L64.5 1040.9L2.8 1041.1L3.2 947.0Z"></path></clipPath><g class="cytui-subgraph s-d4gedxE1Ge37" clip-path="url(#vsubclip-cytoid_1_1_3)"><path class="vsub-spoke s-d4gedxE1Ge37" d="M408.3,635.6L623.2,460.4" stroke="#bc2476"></path><path class="vsub-spoke s-d4gedxE1Ge37" d="M408.3,635.6L194.9,835.9" stroke="hsl(138, 52%, 60%)"></path><path class="vsub-spoke s-d4gedxE1Ge37" d="M408.3,635.6L564.7,432.1" stroke="hsl(275, 52%, 60%)"></path><path class="vsub-spoke s-d4gedxE1Ge37" d="M408.3,635.6L364.5,608.4" stroke="hsl(190, 52%, 60%)"></path><!----><path class="vsub-gwall s-d4gedxE1Ge37 boundary" d="M807.1 297.4L807.1 298.2L439.2 666.0L439.6 579.9Z" stroke="#bc2476" fill="#bc2476"></path><path class="vsub-gwall s-d4gedxE1Ge37" d="M404.2 700.5L65.8 1038.7L4.5 1039.3L5.4 945.7L316.8 634.1L372.6 657.2Z" stroke="hsl(138, 52%, 60%)" fill="hsl(138, 52%, 60%)"></path><path class="vsub-gwall s-d4gedxE1Ge37" d="M807.8 142.4L806.8 296.9L439.1 579.3L387.6 574.0L382.4 568.2Z" stroke="hsl(275, 52%, 60%)" fill="hsl(275, 52%, 60%)"></path><path class="vsub-gwall s-d4gedxE1Ge37" d="M320.3 630.8L379.4 572.0L384.3 577.6L373.8 653.0Z" stroke="hsl(190, 52%, 60%)" fill="hsl(190, 52%, 60%)"></path><!----><path class="vsub-nwall s-d4gedxE1Ge37" d="M435.8 666.0L406.4 696.6L376.5 654.2L386.5 577.9L436.3 583.4Z" stroke="#bc2476" fill="#bc2476"></path><!----><path class="vsub-wall s-d4gedxE1Ge37" d="M629.3 474.9L620.7 483.3L617.3 474.9Z" stroke="#bc2476" fill="#bc2476"></path><text text-anchor="middle" class="vsub-label s-d4gedxE1Ge37 hot" x="622.5" y="480.1" font-size="7.0" role="button"><tspan class="vsub-c s-d4gedxE1Ge37">%</tspan><!----> <!----> <tspan class="vsub-v s-d4gedxE1Ge37">Root</tspan><!----> <!----> <!----></text><path class="vsub-wall s-d4gedxE1Ge37" d="M618.7 485.9L440.3 664.6L441.2 579.1L584.6 469.1L614.3 475.1Z" stroke="#bc2476" fill="#bc2476"></path><text text-anchor="middle" class="vsub-label s-d4gedxE1Ge37 hot" x="539.8" y="541.2" font-size="18.4" role="button"><tspan class="vsub-c s-d4gedxE1Ge37">%</tspan><!----> <!----> <tspan class="vsub-v s-d4gedxE1Ge37">Frond</tspan><!----> <!----> <!----></text><path class="vsub-wall s-d4gedxE1Ge37" d="M805.7 298.6L805.7 299.4L632.1 472.8L617.0 472.8L587.1 466.7Z" stroke="#bc2476" fill="#bc2476"></path><text text-anchor="middle" class="vsub-label s-d4gedxE1Ge37 hot" x="689.5" y="405.3" font-size="9.2" role="button"><tspan class="vsub-c s-d4gedxE1Ge37">%</tspan><!----> <!----> <tspan class="vsub-v s-d4gedxE1Ge37">Moss</tspan><!----> <!----> <!----></text><path class="vsub-wall s-d4gedxE1Ge37" d="M308.2 796.0L199.6 904.3L179.5 854.4Z" stroke="#bc2476" fill="#bc2476"></path><text text-anchor="middle" class="vsub-label s-d4gedxE1Ge37" x="229.1" y="856.6" font-size="14.4"><!----> <!----> <tspan class="vsub-v s-d4gedxE1Ge37">1998</tspan><!----> <tspan class="vsub-sup s-d4gedxE1Ge37" dy="-0.45em">×2</tspan><!----> <!----></text><path class="vsub-wall s-d4gedxE1Ge37" d="M197.0 906.3L66.3 1037.0L5.7 1037.9L7.1 945.5L124.5 827.7L176.4 855.8Z" stroke="#bc2476" fill="#bc2476"></path><text text-anchor="middle" class="vsub-label s-d4gedxE1Ge37" x="96.2" y="945.6" font-size="30.0"><!----> <!----> <tspan class="vsub-v s-d4gedxE1Ge37">2019</tspan><!----> <!----> <!----></text><path class="vsub-wall s-d4gedxE1Ge37" d="M402.5 701.1L308.9 793.3L178.9 853.2L126.6 825.2L316.3 635.8L371.3 658.5Z" stroke="#bc2476" fill="#bc2476"></path><text text-anchor="middle" class="vsub-label s-d4gedxE1Ge37" x="284.1" y="755.0" font-size="30.0"><!----> <!----> <tspan class="vsub-v s-d4gedxE1Ge37">2007</tspan><!----> <!----> <!----></text><!----><!----><text class="vsub-gkey s-d4gedxE1Ge37" text-anchor="middle" x="637.8" y="448.9" font-size="11.7" fill="#bc2476">Track<!----><!----></text><!----><text class="vsub-gkey s-d4gedxE1Ge37" text-anchor="middle" x="296.5" y="735.9" font-size="13.0" fill="hsl(138, 52%, 60%)">year<tspan class="vsub-colon s-d4gedxE1Ge37">:</tspan><!----><!----></text><!----><text class="vsub-gkey s-d4gedxE1Ge37" text-anchor="middle" x="706.8" y="321.7" font-size="13.0" fill="hsl(275, 52%, 60%)">live<!----><tspan class="vsub-sup s-d4gedxE1Ge37" dy="-0.45em">×2</tspan><!----></text><!----><text class="vsub-gkey s-d4gedxE1Ge37" text-anchor="middle" x="363.7" y="606.8" font-size="7.0" fill="hsl(190, 52%, 60%)">remaster<!----><tspan class="vsub-sup s-d4gedxE1Ge37" dy="-0.45em">×2</tspan><!----></text><!----><text class="vsub-ntitle s-d4gedxE1Ge37" text-anchor="middle" x="406.4" y="654.3" font-size="8.0"><tspan class="vsub-ntag s-d4gedxE1Ge37" fill="#bc2476">Artist</tspan><tspan class="s-d4gedxE1Ge37"></tspan><!----><!----><tspan class="vsub-nk s-d4gedxE1Ge37" fill="hsl(53, 52%, 68%)">name</tspan><tspan class="vsub-colon s-d4gedxE1Ge37">:</tspan><!----><tspan class="vsub-v s-d4gedxE1Ge37">Fernway</tspan><!----><tspan class="vsub-sup s-d4gedxE1Ge37" dy="-0.45em">×4</tspan><!----></text><!----><!----><text class="vsub-dip s-d4gedxE1Ge37" text-anchor="end" role="button" x="68.2" y="1033.1">/*4</text><!----></g><clipPath class="s-d4gedxE1Ge37" id="vsubclip-cytoid_1_1_4"><path class="s-d4gedxE1Ge37" d="M783.3 3.1L809.4 3.0L808.8 139.7L2.6 946.3L3.0 783.2Z"></path></clipPath><g class="cytui-subgraph s-d4gedxE1Ge37" clip-path="url(#vsubclip-cytoid_1_1_4)"><path class="vsub-spoke s-d4gedxE1Ge37" d="M391.1,475.2L620.4,306.1" stroke="#bc2476"></path><path class="vsub-spoke s-d4gedxE1Ge37" d="M391.1,475.2L183.1,684.6" stroke="hsl(138, 52%, 60%)"></path><path class="vsub-spoke s-d4gedxE1Ge37" d="M391.1,475.2L639.3,199.4" stroke="hsl(275, 52%, 60%)"></path><!----><path class="vsub-gwall s-d4gedxE1Ge37 boundary" d="M806.9 140.9L806.9 141.4L433.7 514.8L434.1 427.4Z" stroke="#bc2476" fill="#bc2476"></path><path class="vsub-gwall s-d4gedxE1Ge37" d="M395.4 552.5L4.0 944.3L5.2 782.0L327.5 459.5Z" stroke="hsl(138, 52%, 60%)" fill="hsl(138, 52%, 60%)"></path><path class="vsub-gwall s-d4gedxE1Ge37" d="M781.8 5.1L807.7 4.9L806.4 140.1L433.7 426.9L366.8 419.9Z" stroke="hsl(275, 52%, 60%)" fill="hsl(275, 52%, 60%)"></path><!----><path class="vsub-nwall s-d4gedxE1Ge37" d="M430.3 514.9L397.4 548.6L331.3 458.1L366.0 423.7L430.4 430.7Z" stroke="#bc2476" fill="#bc2476"></path><!----><path class="vsub-wall s-d4gedxE1Ge37" d="M628.9 318.5L618.6 328.5L614.5 318.4Z" stroke="#bc2476" fill="#bc2476"></path><text text-anchor="middle" class="vsub-label s-d4gedxE1Ge37 hot" x="620.7" y="324.2" font-size="7.0" role="button"><tspan class="vsub-c s-d4gedxE1Ge37">%</tspan><!----> <!----> <tspan class="vsub-v s-d4gedxE1Ge37">Echo</tspan><!----> <!----> <!----></text><path class="vsub-wall s-d4gedxE1Ge37" d="M616.6 331.2L434.8 513.3L435.8 426.7L583.8 313.1L611.5 318.7Z" stroke="#bc2476" fill="#bc2476"></path><text text-anchor="middle" class="vsub-label s-d4gedxE1Ge37 hot" x="536.5" y="386.0" font-size="15.5" role="button"><tspan class="vsub-c s-d4gedxE1Ge37">%</tspan><!----> <!----> <tspan class="vsub-v s-d4gedxE1Ge37">Static</tspan><!----> <!----> <!----></text><path class="vsub-wall s-d4gedxE1Ge37" d="M805.5 142.1L805.5 142.6L631.7 316.4L614.2 316.3L586.4 310.6Z" stroke="#bc2476" fill="#bc2476"></path><text text-anchor="middle" class="vsub-label s-d4gedxE1Ge37 hot" x="688.7" y="248.1" font-size="7.3" role="button"><tspan class="vsub-c s-d4gedxE1Ge37">%</tspan><!----> <!----> <tspan class="vsub-v s-d4gedxE1Ge37">Choir</tspan><!----> <!----> <!----></text><path class="vsub-wall s-d4gedxE1Ge37" d="M393.9 553.4L5.0 942.8L6.8 781.1L326.6 461.0Z" stroke="#bc2476" fill="#bc2476"></path><text text-anchor="middle" class="vsub-label s-d4gedxE1Ge37" x="183.1" y="695.1" font-size="30.0"><!----> <!----> <tspan class="vsub-v s-d4gedxE1Ge37">2007</tspan><!----> <!----> <!----></text><!----><!----><text class="vsub-gkey s-d4gedxE1Ge37" text-anchor="middle" x="635.1" y="294.6" font-size="11.8" fill="#bc2476">Track<!----><!----></text><!----><text class="vsub-gkey s-d4gedxE1Ge37" text-anchor="middle" x="214.2" y="658.0" font-size="13.0" fill="hsl(138, 52%, 60%)">year<tspan class="vsub-colon s-d4gedxE1Ge37">:</tspan><!----><!----></text><!----><text class="vsub-gkey s-d4gedxE1Ge37" text-anchor="middle" x="726.7" y="144.5" font-size="13.0" fill="hsl(275, 52%, 60%)">live<!----><tspan class="vsub-sup s-d4gedxE1Ge37" dy="-0.45em">×1</tspan><!----></text><!----><text class="vsub-ntitle s-d4gedxE1Ge37" text-anchor="middle" x="381.9" y="464.0" font-size="8.0"><tspan class="vsub-ntag s-d4gedxE1Ge37" fill="#bc2476">Artist</tspan><tspan class="s-d4gedxE1Ge37"></tspan><!----><!----><tspan class="vsub-nk s-d4gedxE1Ge37" fill="hsl(53, 52%, 68%)">name</tspan><tspan class="vsub-colon s-d4gedxE1Ge37">:</tspan><!----><tspan class="vsub-v s-d4gedxE1Ge37">Voxhall</tspan><!----><tspan class="vsub-sup s-d4gedxE1Ge37" dy="-0.45em">×3</tspan><!----></text><!----><!----><text class="vsub-dip s-d4gedxE1Ge37" text-anchor="end" role="button" x="6.6" y="938.3">/*3</text><!----></g><clipPath class="s-d4gedxE1Ge37" id="vsubclip-cytoid_1_1_7"><path class="s-d4gedxE1Ge37" d="M607.0 3.2L782.7 2.5L2.5 782.7L3.2 607.0Z"></path></clipPath><g class="cytui-subgraph s-d4gedxE1Ge37" clip-path="url(#vsubclip-cytoid_1_1_7)"><path class="vsub-spoke s-d4gedxE1Ge37" d="M348.2,367.6L448.3,302.4" stroke="#bc2476"></path><path class="vsub-spoke s-d4gedxE1Ge37" d="M348.2,367.6L182.1,517.2" stroke="hsl(138, 52%, 60%)"></path><path class="vsub-spoke s-d4gedxE1Ge37" d="M348.2,367.6L300.9,336.6" stroke="hsl(190, 52%, 60%)"></path><path class="vsub-spoke s-d4gedxE1Ge37" d="M348.2,367.6L500.1,182.3" stroke="hsl(275, 52%, 60%)"></path><!----><path class="vsub-gwall s-d4gedxE1Ge37 boundary" d="M586.7 198.0L378.5 406.0L379.6 303.3Z" stroke="#bc2476" fill="#bc2476"></path><path class="vsub-gwall s-d4gedxE1Ge37" d="M344.6 439.4L3.9 780.6L5.4 605.9L245.2 366.3L311.2 393.7Z" stroke="hsl(138, 52%, 60%)" fill="hsl(138, 52%, 60%)"></path><path class="vsub-gwall s-d4gedxE1Ge37" d="M248.4 362.9L317.6 294.0L325.0 299.9L312.5 389.6Z" stroke="hsl(190, 52%, 60%)" fill="hsl(190, 52%, 60%)"></path><path class="vsub-gwall s-d4gedxE1Ge37" d="M605.7 5.4L780.6 3.8L586.2 196.1L378.9 301.6L328.4 296.4L320.7 290.4Z" stroke="hsl(275, 52%, 60%)" fill="hsl(275, 52%, 60%)"></path><!----><path class="vsub-nwall s-d4gedxE1Ge37" d="M375.7 406.0L346.9 435.8L315.0 390.6L327.1 300.2L376.1 305.6Z" stroke="#bc2476" fill="#bc2476"></path><!----><path class="vsub-wall s-d4gedxE1Ge37" d="M490.5 293.5L448.1 335.5L435.8 309.3Z" stroke="#bc2476" fill="#bc2476"></path><text text-anchor="middle" class="vsub-label s-d4gedxE1Ge37 hot" x="458.1" y="315.5" font-size="7.8" role="button"><tspan class="vsub-c s-d4gedxE1Ge37">%</tspan><!----> <!----> <tspan class="vsub-v s-d4gedxE1Ge37">Delta</tspan><!----> <!----> <!----></text><path class="vsub-wall s-d4gedxE1Ge37" d="M445.6 336.8L379.2 404.3L381.0 304.5L402.6 293.6L432.7 310.1Z" stroke="#bc2476" fill="#bc2476"></path><text text-anchor="middle" class="vsub-label s-d4gedxE1Ge37 hot" x="408.2" y="336.8" font-size="19.8" role="button"><tspan class="vsub-c s-d4gedxE1Ge37">%</tspan><!----> <!----> <tspan class="vsub-v s-d4gedxE1Ge37">Silt</tspan><!----> <!----> <!----></text><path class="vsub-wall s-d4gedxE1Ge37" d="M585.2 199.0L491.0 291.1L435.5 307.8L404.1 291.3Z" stroke="#bc2476" fill="#bc2476"></path><text text-anchor="middle" class="vsub-label s-d4gedxE1Ge37 hot" x="478.9" y="280.1" font-size="22.3" role="button"><tspan class="vsub-c s-d4gedxE1Ge37">%</tspan><!----> <!----> <tspan class="vsub-v s-d4gedxE1Ge37">Eddy</tspan><!----> <!----> <!----></text><path class="vsub-wall s-d4gedxE1Ge37" d="M342.9 439.6L187.2 596.1L137.9 475.0L245.2 368.1L309.9 395.0Z" stroke="#bc2476" fill="#bc2476"></path><text text-anchor="middle" class="vsub-label s-d4gedxE1Ge37" x="244.6" y="465.3" font-size="30.0"><!----> <!----> <tspan class="vsub-v s-d4gedxE1Ge37">1998</tspan><!----> <tspan class="vsub-sup s-d4gedxE1Ge37" dy="-0.45em">×2</tspan><!----> <!----></text><path class="vsub-wall s-d4gedxE1Ge37" d="M184.7 598.0L4.7 779.0L7.2 606.1L135.5 477.0Z" stroke="#bc2476" fill="#bc2476"></path><text text-anchor="middle" class="vsub-label s-d4gedxE1Ge37" x="83.0" y="625.5" font-size="30.0"><!----> <!----> <tspan class="vsub-v s-d4gedxE1Ge37">2019</tspan><!----> <!----> <!----></text><!----><!----><text class="vsub-gkey s-d4gedxE1Ge37" text-anchor="middle" x="463.3" y="285.7" font-size="13.0" fill="#bc2476">Track<!----><!----></text><!----><text class="vsub-gkey s-d4gedxE1Ge37" text-anchor="middle" x="165.7" y="536.6" font-size="13.0" fill="hsl(138, 52%, 60%)">year<tspan class="vsub-colon s-d4gedxE1Ge37">:</tspan><!----><!----></text><!----><text class="vsub-gkey s-d4gedxE1Ge37" text-anchor="middle" x="299.8" y="334.7" font-size="7.0" fill="hsl(190, 52%, 60%)">remaster<!----><tspan class="vsub-sup s-d4gedxE1Ge37" dy="-0.45em">×2</tspan><!----></text><!----><text class="vsub-gkey s-d4gedxE1Ge37" text-anchor="middle" x="670.0" y="32.2" font-size="13.0" fill="hsl(275, 52%, 60%)">live<!----><tspan class="vsub-sup s-d4gedxE1Ge37" dy="-0.45em">×2</tspan><!----></text><!----><text class="vsub-ntitle s-d4gedxE1Ge37" text-anchor="middle" x="345.8" y="387.1" font-size="8.0"><tspan class="vsub-ntag s-d4gedxE1Ge37" fill="#bc2476">Artist</tspan><tspan class="s-d4gedxE1Ge37"></tspan><!----><!----><tspan class="vsub-nk s-d4gedxE1Ge37" fill="hsl(53, 52%, 68%)">name</tspan><tspan class="vsub-colon s-d4gedxE1Ge37">:</tspan><!----><tspan class="vsub-v s-d4gedxE1Ge37">Riverine</tspan><!----><tspan class="vsub-sup s-d4gedxE1Ge37" dy="-0.45em">×3</tspan><!----></text><!----><!----><text class="vsub-dip s-d4gedxE1Ge37" text-anchor="end" role="button" x="6.5" y="774.7">/*3</text><!----></g><clipPath class="s-d4gedxE1Ge37" id="vsubclip-cytoid_1_1_9"><path class="s-d4gedxE1Ge37" d="M2.8 2.8L605.8 1.8L1.8 605.8Z"></path></clipPath><g class="cytui-subgraph s-d4gedxE1Ge37" clip-path="url(#vsubclip-cytoid_1_1_9)"><path class="vsub-spoke s-d4gedxE1Ge37" d="M213.8,243.8L392.0,121.4" stroke="#bc2476"></path><path class="vsub-spoke s-d4gedxE1Ge37" d="M213.8,243.8L76.5,298.1" stroke="hsl(138, 52%, 60%)"></path><path class="vsub-spoke s-d4gedxE1Ge37" d="M213.8,243.8L150.9,74.2" stroke="hsl(275, 52%, 60%)"></path><!----><path class="vsub-gwall s-d4gedxE1Ge37 boundary" d="M406.5 4.6L603.7 3.0L278.4 328.2L279.6 149.9Z" stroke="#bc2476" fill="#bc2476"></path><path class="vsub-gwall s-d4gedxE1Ge37" d="M237.2 367.1L2.4 603.4L3.5 92.3L62.9 129.4Z" stroke="hsl(138, 52%, 60%)" fill="hsl(138, 52%, 60%)"></path><path class="vsub-gwall s-d4gedxE1Ge37" d="M5.1 3.9L404.4 2.8L275.1 149.2L64.9 125.7L5.2 89.6Z" stroke="hsl(275, 52%, 60%)" fill="hsl(275, 52%, 60%)"></path><!----><path class="vsub-nwall s-d4gedxE1Ge37" d="M275.8 152.6L275.8 328.4L239.0 365.7L64.7 128.5Z" stroke="#bc2476" fill="#bc2476"></path><!----><path class="vsub-wall s-d4gedxE1Ge37" d="M407.3 6.2L602.0 3.7L402.6 202.8L349.4 72.0Z" stroke="#bc2476" fill="#bc2476"></path><text text-anchor="middle" class="vsub-label s-d4gedxE1Ge37 hot" x="440.3" y="81.7" font-size="30.0" role="button"><tspan class="vsub-c s-d4gedxE1Ge37">%</tspan><!----> <!----> <tspan class="vsub-v s-d4gedxE1Ge37">Ingot</tspan><!----> <!----> <!----></text><path class="vsub-wall s-d4gedxE1Ge37" d="M400.3 204.2L279.0 326.5L281.0 151.0L347.3 73.8Z" stroke="#bc2476" fill="#bc2476"></path><text text-anchor="middle" class="vsub-label s-d4gedxE1Ge37 hot" x="326.9" y="199.4" font-size="30.0" role="button"><tspan class="vsub-c s-d4gedxE1Ge37">%</tspan><!----> <!----> <tspan class="vsub-v s-d4gedxE1Ge37">Gleam</tspan><!----> <!----> <!----></text><path class="vsub-wall s-d4gedxE1Ge37" d="M235.5 366.4L2.8 601.7L4.1 94.0L63.1 131.2Z" stroke="#bc2476" fill="#bc2476"></path><text text-anchor="middle" class="vsub-label s-d4gedxE1Ge37" x="76.4" y="308.8" font-size="30.0"><!----> <!----> <tspan class="vsub-v s-d4gedxE1Ge37">2007</tspan><!----> <!----> <!----></text><!----><!----><text class="vsub-gkey s-d4gedxE1Ge37" text-anchor="middle" x="481.4" y="33.6" font-size="13.0" fill="#bc2476">Track<!----><!----></text><!----><text class="vsub-gkey s-d4gedxE1Ge37" text-anchor="middle" x="94.3" y="301.3" font-size="13.0" fill="hsl(138, 52%, 60%)">year<tspan class="vsub-colon s-d4gedxE1Ge37">:</tspan><!----><!----></text><!----><text class="vsub-gkey s-d4gedxE1Ge37" text-anchor="middle" x="199.6" y="19.1" font-size="13.0" fill="hsl(275, 52%, 60%)">live<!----><tspan class="vsub-sup s-d4gedxE1Ge37" dy="-0.45em">×1</tspan><!----></text><!----><text class="vsub-ntitle s-d4gedxE1Ge37" text-anchor="middle" x="196.4" y="203.3" font-size="10.6"><tspan class="vsub-ntag s-d4gedxE1Ge37" fill="#bc2476">Artist</tspan><tspan class="s-d4gedxE1Ge37"></tspan><!----><!----><tspan class="vsub-nk s-d4gedxE1Ge37" fill="hsl(53, 52%, 68%)">name</tspan><tspan class="vsub-colon s-d4gedxE1Ge37">:</tspan><!----><tspan class="vsub-v s-d4gedxE1Ge37">Palegold</tspan><!----><tspan class="vsub-sup s-d4gedxE1Ge37" dy="-0.45em">×2</tspan><!----></text><!----><!----><text class="vsub-dip s-d4gedxE1Ge37" text-anchor="end" role="button" x="5.8" y="597.8">/*2</text><!----></g><!----><!----></svg>