<svg xmlns="http://www.w3.org/2000/svg" class="cytui-voronoi s-d4gedxE1Ge37" width="812" height="1044" viewBox="0 0 812 1044" style="background:#070707;font-family:ui-monospace,monospace;font-size:11px"><style>.cytui-voronoi.s-d4gedxE1Ge37 { position: absolute; inset: 0px; width: 100%; height: 100%; pointer-events: none; transition: opacity 0.25s; }
.cytui-voronoi.s-d4gedxE1Ge37 .cytui-veil:where(.s-d4gedxE1Ge37) { fill: rgb(7, 7, 7); opacity: 0.5; }
.cytui-subgraph.s-d4gedxE1Ge37 .vsub-wall:where(.s-d4gedxE1Ge37) { fill-opacity: 0.04; stroke-opacity: 0.3; stroke-width: 0.7; stroke-dasharray: 1, 2.5; stroke-linejoin: round; }
.cytui-subgraph.s-d4gedxE1Ge37 .vsub-gwall:where(.s-d4gedxE1Ge37) { fill-opacity: 0.07; stroke-opacity: 0.45; stroke-width: 1; stroke-dasharray: 3, 2; stroke-linejoin: round; }
.cytui-subgraph.s-d4gedxE1Ge37 .vsub-gwall.boundary:where(.s-d4gedxE1Ge37) { fill-opacity: 0.05; stroke-opacity: 0.55; stroke-width: 1.4; stroke-dasharray: none; }
.cytui-subgraph.s-d4gedxE1Ge37 .vsub-nwall:where(.s-d4gedxE1Ge37) { fill-opacity: 0.09; stroke-opacity: 0.7; stroke-width: 1.4; stroke-linejoin: round; }
.cytui-subgraph.s-d4gedxE1Ge37 .vsub-spoke:where(.s-d4gedxE1Ge37) { fill: none; stroke-width: 1; stroke-opacity: 0.3; stroke-dasharray: 2, 3; stroke-linecap: round; }
.cytui-subgraph.s-d4gedxE1Ge37 text:where(.s-d4gedxE1Ge37) { user-select: none; }
.cytui-subgraph.s-d4gedxE1Ge37 .vsub-label:where(.s-d4gedxE1Ge37) { fill: rgb(201, 201, 201); }
.cytui-subgraph.s-d4gedxE1Ge37 .vsub-label.hot:where(.s-d4gedxE1Ge37) { pointer-events: all; cursor: pointer; }
.cytui-subgraph.s-d4gedxE1Ge37 .vsub-label.hot:where(.s-d4gedxE1Ge37):hover { fill: rgb(255, 255, 255); }
.cytui-subgraph.s-d4gedxE1Ge37 .vsub-tag:where(.s-d4gedxE1Ge37) { fill: rgb(102, 119, 136); font-size: 72%; }
.cytui-subgraph.s-d4gedxE1Ge37 .vsub-v:where(.s-d4gedxE1Ge37) { fill: rgb(207, 207, 207); }
.cytui-subgraph.s-d4gedxE1Ge37 .vsub-colon:where(.s-d4gedxE1Ge37) { fill: rgb(228, 163, 245); }
.cytui-subgraph.s-d4gedxE1Ge37 .vsub-sup:where(.s-d4gedxE1Ge37) { fill: rgb(156, 140, 217); font-size: 68%; }
.cytui-subgraph.s-d4gedxE1Ge37 .vsub-c:where(.s-d4gedxE1Ge37) { fill: rgb(83, 255, 15); font-size: 78%; opacity: 0.85; }
.cytui-subgraph.s-d4gedxE1Ge37 .vsub-gkey:where(.s-d4gedxE1Ge37) { opacity: 0.95; }
.cytui-subgraph.s-d4gedxE1Ge37 .vsub-ntitle:where(.s-d4gedxE1Ge37) { opacity: 0.95; }
.cytui-subgraph.s-d4gedxE1Ge37 .vsub-ntag:where(.s-d4gedxE1Ge37) { font-size: 78%; }
.cytui-subgraph.s-d4gedxE1Ge37 .vsub-title:where(.s-d4gedxE1Ge37) { opacity: 0.92; }
.cytui-subgraph.s-d4gedxE1Ge37 .vsub-dip:where(.s-d4gedxE1Ge37) { fill: rgb(138, 127, 192); font-size: 10px; pointer-events: all; cursor: pointer; }
.cytui-subgraph.s-d4gedxE1Ge37 .vsub-dip:where(.s-d4gedxE1Ge37):hover { fill: rgb(176, 164, 220); }
 *{}</style><rect class="cytui-veil s-d4gedxE1Ge37" height="100%" width="812"></rect><!----><path stroke-linecap="round" stroke-linejoin="round" class="s-d4gedxE1Ge37" d="M2.9 2.8L620.9 2.1L475.0 408.2L137.9 432.7L3.7 336.0L2.9 2.8Z" fill="#c5b759" fill-opacity="0.2" stroke="#c5b759" stroke-opacity="0.85" stroke-width="1.75" stroke-dasharray="1.5 3"></path><path stroke-linecap="round" stroke-linejoin="round" class="s-d4gedxE1Ge37" d="M809.4 536.7L809.7 1040.7L475.2 1040.5L459.9 971.6L568.5 500.9L593.1 491.0L809.4 536.7Z" fill="#bc2476" fill-opacity="0.2" stroke="#bc2476" stroke-opacity="0.85" stroke-width="1.75" stroke-dasharray="1.5 3"></path><path stroke-linecap="round" stroke-linejoin="round" class="s-d4gedxE1Ge37" d="M811.1 124.4L810.5 530.0L634.4 492.5L811.1 124.4Z" fill="#bc2476" fill-opacity="0.2" stroke="#bc2476" stroke-opacity="0.85" stroke-width="1.75" stroke-dasharray="1.5 3"></path><path stroke-linecap="round" stroke-linejoin="round" class="s-d4gedxE1Ge37" d="M470.6 1041.1L2.4 1040.8L1.8 341.1L131.6 436.2L450.5 955.5L470.6 1041.1Z" fill="#bc2476" fill-opacity="0.2" stroke="#bc2476" stroke-opacity="0.85" stroke-width="1.75" stroke-dasharray="1.5 3"></path><path stroke-linecap="round" stroke-linejoin="round" class="s-d4gedxE1Ge37" d="M624.7 4.0L809.9 3.4L808.9 123.1L645.8 461.9L554.4 499.1L480.8 408.7L624.7 4.0Z" fill="#bc2476" fill-opacity="0.2" stroke="#bc2476" stroke-opacity="0.85" stroke-width="1.75" stroke-dasharray="1.5 3"></path><path stroke-linecap="round" stroke-linejoin="round" class="s-d4gedxE1Ge37" d="M136.7 438.3L475.8 414.3L559.8 517.2L458.7 963.1L136.7 438.3Z" fill="#bc2476" fill-opacity="0.2" stroke="#bc2476" stroke-opacity="0.85" stroke-width="1.75" stroke-dasharray="1.5 3"></path><!----><!----><clipPath class="s-d4gedxE1Ge37" id="vsubclip-cytoid_1_1_1"><path class="s-d4gedxE1Ge37" d="M2.9 2.8L620.9 2.1L475.0 408.2L137.9 432.7L3.7 336.0Z"></path></clipPath><g class="cytui-subgraph s-d4gedxE1Ge37" clip-path="url(#vsubclip-cytoid_1_1_1)"><!----><!----><!----><!----><!----><text class="vsub-ntitle s-d4gedxE1Ge37" text-anchor="middle" x="287.3" y="145.5" font-size="16.0"><tspan class="vsub-ntag s-d4gedxE1Ge37" fill="#c5b759">req</tspan><tspan class="vsub-colon s-d4gedxE1Ge37">:</tspan><!----><!----><!----><tspan class="vsub-v s-d4gedxE1Ge37">wrangle</tspan><!----><!----><!----></text><!----><!----><!----></g><clipPath class="s-d4gedxE1Ge37" id="vsubclip-cytoid_1_1_2"><path class="s-d4gedxE1Ge37" d="M809.4 536.7L809.7 1040.7L475.2 1040.5L459.9 971.6L568.5 500.9L593.1 491.0Z"></path></clipPath><g class="cytui-subgraph s-d4gedxE1Ge37" clip-path="url(#vsubclip-cytoid_1_1_2)"><path class="vsub-spoke s-d4gedxE1Ge37" d="M655.9,815.8L760.9,891.1" stroke="#bc2476"></path><path class="vsub-spoke s-d4gedxE1Ge37" d="M655.9,815.8L578.8,946.1" stroke="hsl(138, 52%, 60%)"></path><path class="vsub-spoke s-d4gedxE1Ge37" d="M655.9,815.8L662.1,611.3" stroke="hsl(275, 52%, 60%)"></path><path class="vsub-spoke s-d4gedxE1Ge37" d="M655.9,815.8L550.9,749.3" stroke="hsl(190, 52%, 60%)"></path><!----><path class="vsub-gwall s-d4gedxE1Ge37 boundary" d="M809.0 645.9L809.0 1038.3L738.9 1038.2L723.9 988.5L723.7 744.8Z" stroke="#bc2476" fill="#bc2476"></path><path class="vsub-gwall s-d4gedxE1Ge37" d="M736.4 1039.4L477.0 1038.8L462.3 971.0L493.4 835.0L583.0 802.3L720.7 990.1Z" stroke="hsl(138, 52%, 60%)" fill="hsl(138, 52%, 60%)"></path><path class="vsub-gwall s-d4gedxE1Ge37" d="M807.2 537.9L807.1 642.9L722.0 740.1L594.5 726.0L539.6 636.3L570.2 502.8L594.3 493.1Z" stroke="hsl(275, 52%, 60%)" fill="hsl(275, 52%, 60%)"></path><path class="vsub-gwall s-d4gedxE1Ge37" d="M493.3 831.0L537.5 639.3L591.0 729.3L581.7 797.7Z" stroke="hsl(190, 52%, 60%)" fill="hsl(190, 52%, 60%)"></path><!----><path class="vsub-nwall s-d4gedxE1Ge37" d="M721.4 744.2L722.2 988.5L585.5 800.3L594.6 730.2Z" stroke="#bc2476" fill="#bc2476"></path><!----><path class="vsub-wall s-d4gedxE1Ge37" d="M807.9 888.7L807.4 933.0L765.8 948.3L751.8 914.2Z" stroke="#bc2476" fill="#bc2476"></path><text text-anchor="middle" class="vsub-label s-d4gedxE1Ge37 hot" x="783.2" y="926.9" font-size="16.6" role="button"><tspan class="vsub-c s-d4gedxE1Ge37">%</tspan><!----> <!----> <tspan class="vsub-v s-d4gedxE1Ge37">Tide</tspan><!----> <!----> <!----></text><path class="vsub-wall s-d4gedxE1Ge37" d="M742.1 1036.4L739.0 1036.4L725.2 987.2L724.2 901.4L749.8 915.6L763.5 951.0Z" stroke="#bc2476" fill="#bc2476"></path><text text-anchor="middle" class="vsub-label s-d4gedxE1Ge37 hot" x="740.6" y="974.7" font-size="9.7" role="button"><tspan class="vsub-c s-d4gedxE1Ge37">%</tspan><!----> <!----> <tspan class="vsub-v s-d4gedxE1Ge37">Halo</tspan><!----> <!----> <!----></text><path class="vsub-wall s-d4gedxE1Ge37" d="M808.5 647.6L808.0 885.7L750.3 912.1L724.6 898.0L724.5 746.4Z" stroke="#bc2476" fill="#bc2476"></path><text text-anchor="middle" class="vsub-label s-d4gedxE1Ge37 hot" x="763.2" y="825.7" font-size="22.0" role="button"><tspan class="vsub-c s-d4gedxE1Ge37">%</tspan><!----> <!----> <tspan class="vsub-v s-d4gedxE1Ge37">Drift</tspan><!----> <!----> <!----></text><path class="vsub-wall s-d4gedxE1Ge37" d="M808.2 935.4L808.1 1036.8L743.2 1036.8L765.6 951.5Z" stroke="#bc2476" fill="#bc2476"></path><text text-anchor="middle" class="vsub-label s-d4gedxE1Ge37 hot" x="781.3" y="995.9" font-size="16.6" role="button"><tspan class="vsub-c s-d4gedxE1Ge37">%</tspan><!----> <!----> <tspan class="vsub-v s-d4gedxE1Ge37">Neon</tspan><!----> <!----> <!----></text><path class="vsub-wall s-d4gedxE1Ge37" d="M734.9 1038.4L599.5 1037.8L564.1 952.5L660.1 909.5L718.9 990.0Z" stroke="#bc2476" fill="#bc2476"></path><text text-anchor="middle" class="vsub-label s-d4gedxE1Ge37" x="655.5" y="996.1" font-size="30.0"><!----> <!----> <tspan class="vsub-v s-d4gedxE1Ge37">1998</tspan><!----> <tspan class="vsub-sup s-d4gedxE1Ge37" dy="-0.45em">×2</tspan><!----> <!----></text><path class="vsub-wall s-d4gedxE1Ge37" d="M596.7 1038.0L478.0 1037.3L464.1 971.4L478.0 907.4L560.8 952.8Z" stroke="#bc2476" fill="#bc2476"></path><text text-anchor="middle" class="vsub-label s-d4gedxE1Ge37" x="515.5" y="991.9" font-size="30.0"><!----> <!----> <tspan class="vsub-v s-d4gedxE1Ge37">2007</tspan><!----> <!----> <!----></text><path class="vsub-wall s-d4gedxE1Ge37" d="M478.9 905.2L494.8 836.0L582.4 804.0L658.5 907.3L562.2 950.1Z" stroke="#bc2476" fill="#bc2476"></path><text text-anchor="middle" class="vsub-label s-d4gedxE1Ge37" x="555.4" y="891.0" font-size="30.0"><!----> <!----> <tspan class="vsub-v s-d4gedxE1Ge37">2019</tspan><!----> <!----> <!----></text><!----><!----><text class="vsub-gkey s-d4gedxE1Ge37" text-anchor="middle" x="766.3" y="776.0" font-size="13.0" fill="#bc2476">Track<!----><!----></text><!----><text class="vsub-gkey s-d4gedxE1Ge37" text-anchor="middle" x="565.8" y="901.7" font-size="13.0" fill="hsl(138, 52%, 60%)">year<tspan class="vsub-colon s-d4gedxE1Ge37">:</tspan><!----><!----></text><!----><text class="vsub-gkey s-d4gedxE1Ge37" text-anchor="middle" x="678.4" y="596.5" font-size="13.0" fill="hsl(275, 52%, 60%)">remaster<!----><tspan class="vsub-sup s-d4gedxE1Ge37" dy="-0.45em">×2</tspan><!----></text><!----><text class="vsub-gkey s-d4gedxE1Ge37" text-anchor="middle" x="551.4" y="720.5" font-size="13.0" fill="hsl(190, 52%, 60%)">live<!----><tspan class="vsub-sup s-d4gedxE1Ge37" dy="-0.45em">×2</tspan><!----></text><!----><text class="vsub-ntitle s-d4gedxE1Ge37" text-anchor="middle" x="656.2" y="810.9" font-size="9.1"><tspan class="vsub-ntag s-d4gedxE1Ge37" fill="#bc2476">Artist</tspan><tspan class="s-d4gedxE1Ge37"></tspan><!----><!----><tspan class="vsub-nk s-d4gedxE1Ge37" fill="hsl(53, 52%, 68%)">name</tspan><tspan class="vsub-colon s-d4gedxE1Ge37">:</tspan><!----><tspan class="vsub-v s-d4gedxE1Ge37">Moonlit</tspan><!----><tspan class="vsub-sup s-d4gedxE1Ge37" dy="-0.45em">×4</tspan><!----><!----></text><!----><!----><text class="vsub-dip s-d4gedxE1Ge37" text-anchor="end" role="button" x="801.7" y="1032.7">/*4</text><!----></g><clipPath class="s-d4gedxE1Ge37" id="vsubclip-cytoid_1_1_3"><path class="s-d4gedxE1Ge37" d="M811.1 124.4L810.5 530.0L634.4 492.5Z"></path></clipPath><g class="cytui-subgraph s-d4gedxE1Ge37" clip-path="url(#vsubclip-cytoid_1_1_3)"><path class="vsub-spoke s-d4gedxE1Ge37" d="M748.8,387.9L791.7,437.2" stroke="#bc2476"></path><path class="vsub-spoke s-d4gedxE1Ge37" d="M748.8,387.9L721.8,450.7" stroke="hsl(138, 52%, 60%)"></path><path class="vsub-spoke s-d4gedxE1Ge37" d="M748.8,387.9L712.8,365.6" stroke="hsl(190, 52%, 60%)"></path><path class="vsub-spoke s-d4gedxE1Ge37" d="M748.8,387.9L766.9,296.1" stroke="hsl(275, 52%, 60%)"></path><!----><path class="vsub-gwall s-d4gedxE1Ge37 boundary" d="M810.4 325.8L810.0 527.5L797.2 524.7L771.1 450.4L769.6 357.9Z" stroke="#bc2476" fill="#bc2476"></path><path class="vsub-gwall s-d4gedxE1Ge37" d="M795.6 525.4L636.7 491.4L685.5 390.9L724.9 394.3L766.5 451.7Z" stroke="hsl(138, 52%, 60%)" fill="hsl(138, 52%, 60%)"></path><path class="vsub-gwall s-d4gedxE1Ge37" d="M686.2 387.2L712.2 333.1L728.9 352.8L724.0 389.5Z" stroke="hsl(190, 52%, 60%)" fill="hsl(190, 52%, 60%)"></path><path class="vsub-gwall s-d4gedxE1Ge37" d="M810.5 126.8L808.7 322.0L768.9 353.0L732.2 349.2L714.3 329.3Z" stroke="hsl(275, 52%, 60%)" fill="hsl(275, 52%, 60%)"></path><!----><path class="vsub-nwall s-d4gedxE1Ge37" d="M767.6 357.6L768.2 449.3L727.5 391.4L731.9 353.5Z" stroke="#bc2476" fill="#bc2476"></path><!----><path class="vsub-wall s-d4gedxE1Ge37" d="M809.1 440.0L808.7 457.6L794.6 459.1L790.9 448.5Z" stroke="#bc2476" fill="#bc2476"></path><text text-anchor="middle" class="vsub-label s-d4gedxE1Ge37 hot" x="800.8" y="453.8" font-size="7.0" role="button"><tspan class="vsub-c s-d4gedxE1Ge37">%</tspan><!----> <!----> <tspan class="vsub-v s-d4gedxE1Ge37">Root</tspan><!----> <!----> <!----></text><path class="vsub-wall s-d4gedxE1Ge37" d="M785.3 489.7L772.6 451.4L771.9 441.4L788.1 449.5L791.8 460.2Z" stroke="#bc2476" fill="#bc2476"></path><text text-anchor="middle" class="vsub-label s-d4gedxE1Ge37 hot" x="781.9" y="460.9" font-size="7.0" role="button"><tspan class="vsub-c s-d4gedxE1Ge37">%</tspan><!----> <!----> <tspan class="vsub-v s-d4gedxE1Ge37">Frond</tspan><!----> <!----> <!----></text><path class="vsub-wall s-d4gedxE1Ge37" d="M809.9 327.5L809.3 436.9L789.2 446.2L771.7 438.2L770.4 359.5Z" stroke="#bc2476" fill="#bc2476"></path><text text-anchor="middle" class="vsub-label s-d4gedxE1Ge37 hot" x="790.1" y="405.7" font-size="11.5" role="button"><tspan class="vsub-c s-d4gedxE1Ge37">%</tspan><!----> <!----> <tspan class="vsub-v s-d4gedxE1Ge37">Moss</tspan><!----> <!----> <!----></text><path class="vsub-wall s-d4gedxE1Ge37" d="M809.6 460.5L809.5 525.8L797.3 522.9L787.3 491.6L793.8 462.3Z" stroke="#bc2476" fill="#bc2476"></path><text text-anchor="middle" class="vsub-label s-d4gedxE1Ge37 hot" x="799.5" y="495.1" font-size="7.0" role="button"><tspan class="vsub-c s-d4gedxE1Ge37">%</tspan><!----> <!----> <tspan class="vsub-v s-d4gedxE1Ge37">Bloom</tspan><!----> <!----> <!----></text><path class="vsub-wall s-d4gedxE1Ge37" d="M794.4 524.0L737.6 511.2L714.5 455.2L754.7 437.2L765.6 453.2Z" stroke="#bc2476" fill="#bc2476"></path><text text-anchor="middle" class="vsub-label s-d4gedxE1Ge37" x="753.4" y="480.0" font-size="10.8"><!----> <!----> <tspan class="vsub-v s-d4gedxE1Ge37">1998</tspan><!----> <tspan class="vsub-sup s-d4gedxE1Ge37" dy="-0.45em">×2</tspan><!----> <!----></text><path class="vsub-wall s-d4gedxE1Ge37" d="M735.5 511.7L638.3 490.8L667.6 431.0L711.4 455.4Z" stroke="#bc2476" fill="#bc2476"></path><text text-anchor="middle" class="vsub-label s-d4gedxE1Ge37" x="688.2" y="480.3" font-size="23.1"><!----> <!----> <tspan class="vsub-v s-d4gedxE1Ge37">2019</tspan><!----> <!----> <!----></text><path class="vsub-wall s-d4gedxE1Ge37" d="M668.6 429.0L686.7 392.3L724.0 395.8L753.0 434.9L712.7 452.6Z" stroke="#bc2476" fill="#bc2476"></path><text text-anchor="middle" class="vsub-label s-d4gedxE1Ge37" x="709.0" y="428.9" font-size="22.7"><!----> <!----> <tspan class="vsub-v s-d4gedxE1Ge37">2007</tspan><!----> <!----> <!----></text><!----><!----><text class="vsub-gkey s-d4gedxE1Ge37" text-anchor="middle" x="790.0" y="361.7" font-size="10.5" fill="#bc2476">Track<!----><!----></text><!----><text class="vsub-gkey s-d4gedxE1Ge37" text-anchor="middle" x="710.4" y="449.2" font-size="13.0" fill="hsl(138, 52%, 60%)">year<tspan class="vsub-colon s-d4gedxE1Ge37">:</tspan><!----><!----></text><!----><text class="vsub-gkey s-d4gedxE1Ge37" text-anchor="middle" x="714.9" y="358.1" font-size="7.0" fill="hsl(190, 52%, 60%)">live<!----><tspan class="vsub-sup s-d4gedxE1Ge37" dy="-0.45em">×2</tspan><!----></text><!----><text class="vsub-gkey s-d4gedxE1Ge37" text-anchor="middle" x="788.6" y="219.7" font-size="7.0" fill="hsl(275, 52%, 60%)">remaster<!----><tspan class="vsub-sup s-d4gedxE1Ge37" dy="-0.45em">×2</tspan><!----></text><!----><text class="vsub-ntitle s-d4gedxE1Ge37" text-anchor="middle" x="747.8" y="392.7" font-size="8.0"><tspan class="vsub-ntag s-d4gedxE1Ge37" fill="#bc2476">Artist</tspan><tspan class="s-d4gedxE1Ge37"></tspan><!----><!----><tspan class="vsub-nk s-d4gedxE1Ge37" fill="hsl(53, 52%, 68%)">name</tspan><tspan class="vsub-colon s-d4gedxE1Ge37">:</tspan><!----><tspan class="vsub-v s-d4gedxE1Ge37">Fernway</tspan><!----><tspan class="vsub-sup s-d4gedxE1Ge37" dy="-0.45em">×4</tspan><!----><!----></text><!----><!----><text class="vsub-dip s-d4gedxE1Ge37" text-anchor="end" role="button" x="802.5" y="522.0">/*4</text><!----></g><clipPath class="s-d4gedxE1Ge37" id="vsubclip-cytoid_1_1_4"><path class="s-d4gedxE1Ge37" d="M470.6 1041.1L2.4 1040.8L1.8 341.1L131.6 436.2L450.5 955.5Z"></path></clipPath><g class="cytui-subgraph s-d4gedxE1Ge37" clip-path="url(#vsubclip-cytoid_1_1_4)"><path class="vsub-spoke s-d4gedxE1Ge37" d="M181.9,719.5L334.8,933.3" stroke="#bc2476"></path><path class="vsub-spoke s-d4gedxE1Ge37" d="M181.9,719.5L120.4,942.1" stroke="hsl(138, 52%, 60%)"></path><path class="vsub-spoke s-d4gedxE1Ge37" d="M181.9,719.5L73.4,570.4" stroke="hsl(190, 52%, 60%)"></path><!----><path class="vsub-gwall s-d4gedxE1Ge37 boundary" d="M468.6 1039.5L259.5 1038.9L249.4 1005.5L248.2 627.4L448.0 955.0Z" stroke="#bc2476" fill="#bc2476"></path><path class="vsub-gwall s-d4gedxE1Ge37" d="M256.0 1039.5L4.3 1039.2L4.0 829.0L92.3 797.1L245.3 1006.0Z" stroke="hsl(138, 52%, 60%)" fill="hsl(138, 52%, 60%)"></path><path class="vsub-gwall s-d4gedxE1Ge37" d="M2.9 824.8L2.5 343.5L130.6 438.5L139.3 452.9L91.6 792.1Z" stroke="hsl(190, 52%, 60%)" fill="hsl(190, 52%, 60%)"></path><!----><path class="vsub-nwall s-d4gedxE1Ge37" d="M140.9 453.1L246.1 627.0L247.0 1004.7L93.7 793.0Z" stroke="#bc2476" fill="#bc2476"></path><!----><path class="vsub-wall s-d4gedxE1Ge37" d="M467.3 1038.3L352.8 1037.8L316.9 950.9L416.7 906.1L446.4 955.8Z" stroke="#bc2476" fill="#bc2476"></path><text text-anchor="middle" class="vsub-label s-d4gedxE1Ge37 hot" x="400.0" y="988.3" font-size="30.0" role="button"><tspan class="vsub-c s-d4gedxE1Ge37">%</tspan><!----> <!----> <tspan class="vsub-v s-d4gedxE1Ge37">Echo</tspan><!----> <!----> <!----></text><path class="vsub-wall s-d4gedxE1Ge37" d="M350.2 1038.1L260.3 1037.3L251.1 1004.8L249.9 916.2L314.1 951.8Z" stroke="#bc2476" fill="#bc2476"></path><text text-anchor="middle" class="vsub-label s-d4gedxE1Ge37 hot" x="285.1" y="995.7" font-size="17.3" role="button"><tspan class="vsub-c s-d4gedxE1Ge37">%</tspan><!----> <!----> <tspan class="vsub-v s-d4gedxE1Ge37">Static</tspan><!----> <!----> <!----></text><path class="vsub-wall s-d4gedxE1Ge37" d="M250.3 913.2L248.7 629.1L415.5 903.5L315.0 948.6Z" stroke="#bc2476" fill="#bc2476"></path><text text-anchor="middle" class="vsub-label s-d4gedxE1Ge37 hot" x="307.4" y="859.1" font-size="30.0" role="button"><tspan class="vsub-c s-d4gedxE1Ge37">%</tspan><!----> <!----> <tspan class="vsub-v s-d4gedxE1Ge37">Choir</tspan><!----> <!----> <!----></text><path class="vsub-wall s-d4gedxE1Ge37" d="M254.6 1038.4L5.7 1038.0L5.3 830.2L92.6 798.8L243.7 1005.1Z" stroke="#bc2476" fill="#bc2476"></path><text text-anchor="middle" class="vsub-label s-d4gedxE1Ge37" x="120.4" y="952.6" font-size="30.0"><!----> <!----> <tspan class="vsub-v s-d4gedxE1Ge37">2007</tspan><!----> <!----> <!----></text><!----><!----><text class="vsub-gkey s-d4gedxE1Ge37" text-anchor="middle" x="298.8" y="796.8" font-size="13.0" fill="#bc2476">Track<!----><!----></text><!----><text class="vsub-gkey s-d4gedxE1Ge37" text-anchor="middle" x="83.7" y="898.6" font-size="13.0" fill="hsl(138, 52%, 60%)">year<tspan class="vsub-colon s-d4gedxE1Ge37">:</tspan><!----><!----></text><!----><text class="vsub-gkey s-d4gedxE1Ge37" text-anchor="middle" x="70.5" y="463.5" font-size="13.0" fill="hsl(190, 52%, 60%)">live<!----><tspan class="vsub-sup s-d4gedxE1Ge37" dy="-0.45em">×1</tspan><!----></text><!----><text class="vsub-ntitle s-d4gedxE1Ge37" text-anchor="middle" x="170.9" y="798.8" font-size="10.6"><tspan class="vsub-ntag s-d4gedxE1Ge37" fill="#bc2476">Artist</tspan><tspan class="s-d4gedxE1Ge37"></tspan><!----><!----><tspan class="vsub-nk s-d4gedxE1Ge37" fill="hsl(53, 52%, 68%)">name</tspan><tspan class="vsub-colon s-d4gedxE1Ge37">:</tspan><!----><tspan class="vsub-v s-d4gedxE1Ge37">Voxhall</tspan><!----><tspan class="vsub-sup s-d4gedxE1Ge37" dy="-0.45em">×3</tspan><!----><!----></text><!----><!----><text class="vsub-dip s-d4gedxE1Ge37" text-anchor="end" role="button" x="459.8" y="1033.1">/*3</text><!----></g><clipPath class="s-d4gedxE1Ge37" id="vsubclip-cytoid_1_1_7"><path class="s-d4gedxE1Ge37" d="M624.7 4.0L809.9 3.4L808.9 123.1L645.8 461.9L554.4 499.1L480.8 408.7Z"></path></clipPath><g class="cytui-subgraph s-d4gedxE1Ge37" clip-path="url(#vsubclip-cytoid_1_1_7)"><path class="vsub-spoke s-d4gedxE1Ge37" d="M647.9,247.3L735.1,228.3" stroke="#bc2476"></path><path class="vsub-spoke s-d4gedxE1Ge37" d="M647.9,247.3L599.3,372.4" stroke="hsl(138, 52%, 60%)"></path><path class="vsub-spoke s-d4gedxE1Ge37" d="M647.9,247.3L687.0,101.9" stroke="hsl(275, 52%, 60%)"></path><path class="vsub-spoke s-d4gedxE1Ge37" d="M647.9,247.3L584.0,206.3" stroke="hsl(190, 52%, 60%)"></path><!----><path class="vsub-gwall s-d4gedxE1Ge37 boundary" d="M807.9 95.9L807.5 125.1L689.3 370.6L684.7 358.1L685.8 191.6Z" stroke="#bc2476" fill="#bc2476"></path><path class="vsub-gwall s-d4gedxE1Ge37" d="M686.1 373.0L644.6 459.6L555.3 496.8L483.2 407.9L538.6 251.5L606.0 256.9L681.4 360.8Z" stroke="hsl(138, 52%, 60%)" fill="hsl(138, 52%, 60%)"></path><path class="vsub-gwall s-d4gedxE1Ge37" d="M626.1 6.1L807.9 4.9L806.6 93.9L683.9 187.6L618.0 180.8L579.2 138.0Z" stroke="hsl(275, 52%, 60%)" fill="hsl(275, 52%, 60%)"></path><path class="vsub-gwall s-d4gedxE1Ge37" d="M614.3 184.1L605.1 252.2L539.4 247.6L577.1 141.3Z" stroke="hsl(190, 52%, 60%)" fill="hsl(190, 52%, 60%)"></path><!----><path class="vsub-nwall s-d4gedxE1Ge37" d="M682.5 192.2L683.1 358.0L608.6 254.0L617.4 184.9Z" stroke="#bc2476" fill="#bc2476"></path><!----><path class="vsub-wall s-d4gedxE1Ge37" d="M754.8 232.9L736.0 271.9L718.7 239.0Z" stroke="#bc2476" fill="#bc2476"></path><text text-anchor="middle" class="vsub-label s-d4gedxE1Ge37 hot" x="736.5" y="250.4" font-size="7.0" role="button"><tspan class="vsub-c s-d4gedxE1Ge37">%</tspan><!----> <!----> <tspan class="vsub-v s-d4gedxE1Ge37">Delta</tspan><!----> <!----> <!----></text><path class="vsub-wall s-d4gedxE1Ge37" d="M734.4 274.6L689.6 368.9L685.2 356.4L686.1 222.9L716.7 239.9Z" stroke="#bc2476" fill="#bc2476"></path><text text-anchor="middle" class="vsub-label s-d4gedxE1Ge37 hot" x="702.4" y="296.8" font-size="12.2" role="button"><tspan class="vsub-c s-d4gedxE1Ge37">%</tspan><!----> <!----> <tspan class="vsub-v s-d4gedxE1Ge37">Silt</tspan><!----> <!----> <!----></text><path class="vsub-wall s-d4gedxE1Ge37" d="M806.9 97.4L806.1 126.3L755.7 230.0L717.9 236.6L687.2 220.2L687.6 191.3Z" stroke="#bc2476" fill="#bc2476"></path><text text-anchor="middle" class="vsub-label s-d4gedxE1Ge37 hot" x="743.6" y="192.9" font-size="26.6" role="button"><tspan class="vsub-c s-d4gedxE1Ge37">%</tspan><!----> <!----> <tspan class="vsub-v s-d4gedxE1Ge37">Eddy</tspan><!----> <!----> <!----></text><path class="vsub-wall s-d4gedxE1Ge37" d="M684.4 372.4L644.2 457.9L619.3 468.4L535.6 264.8L539.8 252.9L606.2 258.7L679.6 360.4Z" stroke="#bc2476" fill="#bc2476"></path><text text-anchor="middle" class="vsub-label s-d4gedxE1Ge37" x="615.6" y="355.8" font-size="22.4"><!----> <!----> <tspan class="vsub-v s-d4gedxE1Ge37">1998</tspan><!----> <tspan class="vsub-sup s-d4gedxE1Ge37" dy="-0.45em">×2</tspan><!----> <!----></text><path class="vsub-wall s-d4gedxE1Ge37" d="M617.9 469.0L555.1 495.0L485.0 408.0L534.5 265.3Z" stroke="#bc2476" fill="#bc2476"></path><text text-anchor="middle" class="vsub-label s-d4gedxE1Ge37" x="548.2" y="419.8" font-size="30.0"><!----> <!----> <tspan class="vsub-v s-d4gedxE1Ge37">2019</tspan><!----> <!----> <!----></text><!----><!----><text class="vsub-gkey s-d4gedxE1Ge37" text-anchor="middle" x="737.5" y="188.4" font-size="13.0" fill="#bc2476">Track<!----><!----></text><!----><text class="vsub-gkey s-d4gedxE1Ge37" text-anchor="middle" x="588.6" y="354.2" font-size="13.0" fill="hsl(138, 52%, 60%)">year<tspan class="vsub-colon s-d4gedxE1Ge37">:</tspan><!----><!----></text><!----><text class="vsub-gkey s-d4gedxE1Ge37" text-anchor="middle" x="703.7" y="82.5" font-size="13.0" fill="hsl(275, 52%, 60%)">remaster<!----><tspan class="vsub-sup s-d4gedxE1Ge37" dy="-0.45em">×2</tspan><!----></text><!----><text class="vsub-gkey s-d4gedxE1Ge37" text-anchor="middle" x="587.7" y="189.6" font-size="11.4" fill="hsl(190, 52%, 60%)">live<!----><tspan class="vsub-sup s-d4gedxE1Ge37" dy="-0.45em">×2</tspan><!----></text><!----><text class="vsub-ntitle s-d4gedxE1Ge37" text-anchor="middle" x="645.9" y="253.5" font-size="8.0"><tspan class="vsub-ntag s-d4gedxE1Ge37" fill="#bc2476">Artist</tspan><tspan class="s-d4gedxE1Ge37"></tspan><!----><!----><tspan class="vsub-nk s-d4gedxE1Ge37" fill="hsl(53, 52%, 68%)">name</tspan><tspan class="vsub-colon s-d4gedxE1Ge37">:</tspan><!----><tspan class="vsub-v s-d4gedxE1Ge37">Riverine</tspan><!----><tspan class="vsub-sup s-d4gedxE1Ge37" dy="-0.45em">×3</tspan><!----><!----></text><!----><!----><text class="vsub-dip s-d4gedxE1Ge37" text-anchor="end" role="button" x="575.8" y="491.1">/*3</text><!----></g><clipPath class="s-d4gedxE1Ge37" id="vsubclip-cytoid_1_1_9"><path class="s-d4gedxE1Ge37" d="M136.7 438.3L475.8 414.3L559.8 517.2L458.7 963.1Z"></path></clipPath><g class="cytui-subgraph s-d4gedxE1Ge37" clip-path="url(#vsubclip-cytoid_1_1_9)"><path class="vsub-spoke s-d4gedxE1Ge37" d="M391.5,560.6L480.1,603.7" stroke="#bc2476"></path><path class="vsub-spoke s-d4gedxE1Ge37" d="M391.5,560.6L392.5,778.2" stroke="hsl(138, 52%, 60%)"></path><path class="vsub-spoke s-d4gedxE1Ge37" d="M391.5,560.6L268.2,530.0" stroke="hsl(190, 52%, 60%)"></path><!----><path class="vsub-gwall s-d4gedxE1Ge37 boundary" d="M445.1 419.0L475.8 416.8L558.1 519.1L476.4 882.7L445.2 781.0Z" stroke="#bc2476" fill="#bc2476"></path><path class="vsub-gwall s-d4gedxE1Ge37" d="M324.8 620.8L442.2 783.2L474.8 883.3L457.8 960.8L263.0 643.1Z" stroke="hsl(138, 52%, 60%)" fill="hsl(138, 52%, 60%)"></path><path class="vsub-gwall s-d4gedxE1Ge37" d="M138.7 439.7L350.0 425.1L322.5 616.4L261.4 638.8Z" stroke="hsl(190, 52%, 60%)" fill="hsl(190, 52%, 60%)"></path><!----><path class="vsub-nwall s-d4gedxE1Ge37" d="M352.2 425.5L443.8 418.9L444.1 781.0L325.7 616.9Z" stroke="#bc2476" fill="#bc2476"></path><!----><path class="vsub-wall s-d4gedxE1Ge37" d="M445.8 420.7L476.0 418.6L556.3 519.3L509.8 731.4L446.8 545.1Z" stroke="#bc2476" fill="#bc2476"></path><text text-anchor="middle" class="vsub-label s-d4gedxE1Ge37 hot" x="486.9" y="537.1" font-size="28.9" role="button"><tspan class="vsub-c s-d4gedxE1Ge37">%</tspan><!----> <!----> <tspan class="vsub-v s-d4gedxE1Ge37">Ingot</tspan><!----> <!----> <!----></text><path class="vsub-wall s-d4gedxE1Ge37" d="M508.2 733.3L476.3 880.9L446.0 779.4L445.4 547.6Z" stroke="#bc2476" fill="#bc2476"></path><text text-anchor="middle" class="vsub-label s-d4gedxE1Ge37 hot" x="469.0" y="740.9" font-size="15.9" role="button"><tspan class="vsub-c s-d4gedxE1Ge37">%</tspan><!----> <!----> <tspan class="vsub-v s-d4gedxE1Ge37">Gleam</tspan><!----> <!----> <!----></text><path class="vsub-wall s-d4gedxE1Ge37" d="M325.5 622.5L440.4 783.0L473.7 881.9L457.2 959.1L264.2 644.4Z" stroke="#bc2476" fill="#bc2476"></path><text text-anchor="middle" class="vsub-label s-d4gedxE1Ge37" x="392.2" y="788.7" font-size="30.0"><!----> <!----> <tspan class="vsub-v s-d4gedxE1Ge37">2007</tspan><!----> <!----> <!----></text><!----><!----><text class="vsub-gkey s-d4gedxE1Ge37" text-anchor="middle" x="500.5" y="533.2" font-size="13.0" fill="#bc2476">Track<!----><!----></text><!----><text class="vsub-gkey s-d4gedxE1Ge37" text-anchor="middle" x="377.9" y="761.4" font-size="13.0" fill="hsl(138, 52%, 60%)">year<tspan class="vsub-colon s-d4gedxE1Ge37">:</tspan><!----><!----></text><!----><text class="vsub-gkey s-d4gedxE1Ge37" text-anchor="middle" x="243.9" y="446.7" font-size="13.0" fill="hsl(190, 52%, 60%)">live<!----><tspan class="vsub-sup s-d4gedxE1Ge37" dy="-0.45em">×1</tspan><!----></text><!----><text class="vsub-ntitle s-d4gedxE1Ge37" text-anchor="middle" x="385.0" y="617.2" font-size="8.0"><tspan class="vsub-ntag s-d4gedxE1Ge37" fill="#bc2476">Artist</tspan><tspan class="s-d4gedxE1Ge37"></tspan><!----><!----><tspan class="vsub-nk s-d4gedxE1Ge37" fill="hsl(53, 52%, 68%)">name</tspan><tspan class="vsub-colon s-d4gedxE1Ge37">:</tspan><!----><tspan class="vsub-v s-d4gedxE1Ge37">Palegold</tspan><!----><tspan class="vsub-sup s-d4gedxE1Ge37" dy="-0.45em">×2</tspan><!----><!----></text><!----><!----><text class="vsub-dip s-d4gedxE1Ge37" text-anchor="end" role="button" x="453.4" y="955.1">/*2</text><!----></g><!----><!----></svg>